<svg width="81" height="69" viewBox="0 0 81 69" fill="none" xmlns="http://www.w3.org/2000/svg">
<path d="M77.8257 0.000350952C78.6342 0.000350952 79.3305 0.292336 79.9145 0.876312C80.4985 1.46028 80.7904 2.15656 80.7904 2.96514V66.0342C80.7904 66.8428 80.4985 67.5391 79.9145 68.1231C79.3305 68.707 78.6342 68.999 77.8257 68.999H2.96479C2.15621 68.999 1.45993 68.707 0.87596 68.1231C0.291987 67.5391 0 66.8428 0 66.0342V2.96514C0 2.15656 0.291987 1.46028 0.87596 0.876312C1.45993 0.292336 2.15621 0.000350952 2.96479 0.000350952H77.8257ZM76.0737 12.9376L49.1211 13.005L45.213 16.6436C44.9435 16.8682 44.6403 17.0479 44.3033 17.1826C43.9664 17.3174 43.5958 17.3848 43.1916 17.3848H4.71671V64.2823H76.0737V12.9376ZM27.1548 29.5135C27.6489 29.0642 28.2216 28.8396 28.873 28.8396C29.5243 28.8396 30.0746 29.0867 30.5238 29.5808C30.973 30.075 31.1864 30.6477 31.164 31.2991C31.1415 31.9504 30.9057 32.4782 30.4564 32.8825L22.1685 40.6314L30.4564 48.3803C30.9057 48.8295 31.1415 49.3798 31.164 50.0311C31.1864 50.6825 30.973 51.2328 30.5238 51.682C30.2992 51.9515 30.0297 52.1424 29.7152 52.2547C29.4008 52.367 29.0864 52.4232 28.7719 52.4232C28.5024 52.4232 28.2216 52.3783 27.9296 52.2884C27.6377 52.1986 27.3794 52.0413 27.1548 51.8167L17.1823 42.4507C16.9577 42.2261 16.778 41.9566 16.6432 41.6421C16.5085 41.3277 16.4411 40.9908 16.4411 40.6314C16.4411 40.317 16.5085 40.0025 16.6432 39.6881C16.778 39.3736 16.9577 39.1041 17.1823 38.8795L27.1548 29.5135ZM42.383 30.2547C42.6076 29.6707 43.0343 29.2552 43.6632 29.0081C44.2921 28.761 44.8986 28.7723 45.4825 29.0418C46.0665 29.3113 46.482 29.7493 46.7291 30.3557C46.9761 30.9622 46.9649 31.5574 46.6954 32.1413L38.2053 51.0755C38.0256 51.4798 37.7337 51.8055 37.3294 52.0526C36.9251 52.2996 36.4983 52.4232 36.0491 52.4232C35.9143 52.4232 35.7571 52.4119 35.5774 52.3895C35.3978 52.367 35.2405 52.3109 35.1058 52.221C34.5218 51.9515 34.1063 51.5135 33.8592 50.9071C33.6121 50.3007 33.6234 49.7055 33.8929 49.1215L42.383 30.2547ZM50.2666 29.5808C50.7158 29.0867 51.2661 28.8396 51.9175 28.8396C52.5688 28.8396 53.1191 29.0642 53.5683 29.5135L63.5408 38.8795C63.8103 39.1041 64.0124 39.3736 64.1472 39.6881C64.282 40.0025 64.3493 40.317 64.3493 40.6314C64.3493 40.9908 64.282 41.3277 64.1472 41.6421C64.0124 41.9566 63.8103 42.2261 63.5408 42.4507L53.5683 51.8167C53.3437 52.0413 53.0966 52.1986 52.8271 52.2884C52.5576 52.3783 52.2656 52.4232 51.9511 52.4232C51.6367 52.4232 51.3335 52.367 51.0415 52.2547C50.7495 52.1424 50.4912 51.9515 50.2666 51.682C49.8174 51.2328 49.604 50.6825 49.6265 50.0311C49.6489 49.3798 49.8848 48.8295 50.334 48.3803L58.5545 40.6314L50.334 32.8825C49.8848 32.4782 49.6489 31.9504 49.6265 31.2991C49.604 30.6477 49.8174 30.075 50.2666 29.5808ZM76.0737 4.71706H4.71671V12.6681H42.5177L46.3585 9.09686C46.6729 8.82733 46.9986 8.62518 47.3355 8.49042C47.6724 8.35566 48.0206 8.28828 48.3799 8.28828L76.0737 8.2209V4.71706ZM17.8561 6.4016C17.901 6.4016 17.9459 6.41283 17.9909 6.43529C18.0358 6.45774 18.0807 6.46898 18.1256 6.46898C18.1705 6.46898 18.2042 6.46898 18.2267 6.46898C18.2492 6.46898 18.2829 6.49144 18.3278 6.53636C18.3727 6.53636 18.4176 6.53636 18.4625 6.53636C18.5075 6.53636 18.5299 6.55882 18.5299 6.60374C18.5748 6.60374 18.6198 6.61497 18.6647 6.63743C18.7096 6.65989 18.7545 6.67112 18.7994 6.67112C18.7994 6.71604 18.8219 6.74973 18.8668 6.77219C18.9117 6.79465 18.9342 6.80589 18.9342 6.80589C18.9791 6.80589 19.024 6.81712 19.069 6.83958C19.1139 6.86203 19.1364 6.89573 19.1364 6.94065C19.1813 6.98557 19.215 7.01926 19.2374 7.04172C19.2599 7.06418 19.2936 7.07541 19.3385 7.07541C19.3385 7.12033 19.361 7.15402 19.4059 7.17648C19.4508 7.19894 19.4733 7.23264 19.4733 7.27755C19.5182 7.32248 19.5519 7.35617 19.5743 7.37863C19.5968 7.40109 19.608 7.43478 19.608 7.4797C19.6529 7.4797 19.6866 7.50216 19.7091 7.54708C19.7316 7.592 19.7428 7.63692 19.7428 7.68184C19.7428 7.68184 19.754 7.7043 19.7765 7.74923C19.7989 7.79415 19.8102 7.83907 19.8102 7.88399C19.8551 7.88399 19.8775 7.90645 19.8775 7.95137C19.8775 7.99629 19.9 8.04121 19.9449 8.08613C19.9449 8.13105 19.9449 8.16475 19.9449 8.18721C19.9449 8.20967 19.9449 8.24335 19.9449 8.28828C19.9898 8.3332 20.0123 8.37812 20.0123 8.42304C20.0123 8.46796 20.0123 8.51288 20.0123 8.5578C20.0123 8.5578 20.0123 8.58027 20.0123 8.62518C20.0123 8.6701 20.0123 8.71503 20.0123 8.75995C20.0123 8.80487 20.0123 8.84979 20.0123 8.89471C20.0123 8.93963 20.0123 8.98455 20.0123 9.02947C20.0123 9.02947 20.0123 9.05193 20.0123 9.09686C20.0123 9.14178 19.9898 9.1867 19.9449 9.23162C19.9449 9.27654 19.9449 9.31023 19.9449 9.33269C19.9449 9.35515 19.9449 9.38884 19.9449 9.43376C19.9 9.47868 19.8775 9.52361 19.8775 9.56853C19.8775 9.61345 19.8551 9.63591 19.8102 9.63591C19.8102 9.68083 19.7989 9.72575 19.7765 9.77067C19.754 9.81559 19.7428 9.86051 19.7428 9.90543C19.7428 9.90543 19.7316 9.92789 19.7091 9.97282C19.6866 10.0177 19.6529 10.0402 19.608 10.0402C19.608 10.0851 19.5968 10.13 19.5743 10.175C19.5519 10.2199 19.5182 10.2423 19.4733 10.2423C19.4733 10.2873 19.4508 10.321 19.4059 10.3434C19.361 10.3659 19.3385 10.3996 19.3385 10.4445C19.2936 10.4445 19.2599 10.4669 19.2374 10.5119C19.215 10.5568 19.1813 10.5793 19.1364 10.5793C19.1364 10.6242 19.1139 10.6579 19.069 10.6803C19.024 10.7028 18.9791 10.714 18.9342 10.714C18.9342 10.7589 18.9117 10.7926 18.8668 10.8151C18.8219 10.8375 18.7994 10.8488 18.7994 10.8488C18.7545 10.8488 18.7096 10.86 18.6647 10.8825C18.6198 10.9049 18.5748 10.9162 18.5299 10.9162C18.5299 10.9611 18.5075 10.9835 18.4625 10.9835C18.4176 10.9835 18.3727 11.006 18.3278 11.0509C18.2829 11.0509 18.2492 11.0509 18.2267 11.0509C18.2042 11.0509 18.1705 11.0509 18.1256 11.0509C18.0807 11.0958 18.0358 11.1183 17.9909 11.1183C17.9459 11.1183 17.901 11.1183 17.8561 11.1183C17.8561 11.1183 17.8336 11.1183 17.7887 11.1183C17.7438 11.1183 17.6989 11.1183 17.654 11.1183C17.609 11.1183 17.5641 11.1183 17.5192 11.1183C17.4743 11.1183 17.4518 11.1183 17.4518 11.1183C17.4069 11.1183 17.362 11.1183 17.317 11.1183C17.2721 11.1183 17.2272 11.0958 17.1823 11.0509C17.1374 11.0509 17.1037 11.0509 17.0812 11.0509C17.0588 11.0509 17.0251 11.0509 16.9801 11.0509C16.9352 11.006 16.8903 10.9835 16.8454 10.9835C16.8005 10.9835 16.778 10.9611 16.778 10.9162C16.7331 10.9162 16.6882 10.9049 16.6432 10.8825C16.5983 10.86 16.5534 10.8488 16.5085 10.8488C16.5085 10.8488 16.486 10.8375 16.4411 10.8151C16.3962 10.7926 16.3512 10.7589 16.3063 10.714C16.3063 10.714 16.2839 10.7028 16.2389 10.6803C16.194 10.6579 16.1716 10.6242 16.1716 10.5793C16.1266 10.5793 16.093 10.5568 16.0705 10.5119C16.048 10.4669 16.0143 10.4445 15.9694 10.4445C15.9694 10.3996 15.947 10.3659 15.902 10.3434C15.8571 10.321 15.8347 10.2873 15.8347 10.2423C15.7897 10.2423 15.756 10.2199 15.7336 10.175C15.7111 10.13 15.6999 10.0851 15.6999 10.0402C15.655 10.0402 15.6213 10.0177 15.5988 9.97282C15.5764 9.92789 15.5651 9.90543 15.5651 9.90543C15.5651 9.86051 15.5539 9.81559 15.5314 9.77067C15.509 9.72575 15.4977 9.68083 15.4977 9.63591C15.4528 9.63591 15.4304 9.61345 15.4304 9.56853C15.4304 9.52361 15.4079 9.47868 15.363 9.43376C15.363 9.38884 15.363 9.35515 15.363 9.33269C15.363 9.31023 15.363 9.27654 15.363 9.23162C15.3181 9.1867 15.2956 9.14178 15.2956 9.09686C15.2956 9.05193 15.2956 9.02947 15.2956 9.02947C15.2956 8.98455 15.2956 8.93963 15.2956 8.89471C15.2956 8.84979 15.2956 8.80487 15.2956 8.75995C15.2956 8.71503 15.2956 8.6701 15.2956 8.62518C15.2956 8.58027 15.2956 8.5578 15.2956 8.5578C15.2956 8.51288 15.2956 8.46796 15.2956 8.42304C15.2956 8.37812 15.3181 8.3332 15.363 8.28828C15.363 8.24335 15.363 8.20967 15.363 8.18721C15.363 8.16475 15.363 8.13105 15.363 8.08613C15.4079 8.04121 15.4304 7.99629 15.4304 7.95137C15.4304 7.90645 15.4528 7.88399 15.4977 7.88399C15.4977 7.83907 15.509 7.79415 15.5314 7.74923C15.5539 7.7043 15.5651 7.68184 15.5651 7.68184C15.5651 7.63692 15.5764 7.592 15.5988 7.54708C15.6213 7.50216 15.655 7.4797 15.6999 7.4797C15.6999 7.43478 15.7111 7.40109 15.7336 7.37863C15.756 7.35617 15.7897 7.32248 15.8347 7.27755C15.8347 7.23264 15.8571 7.19894 15.902 7.17648C15.947 7.15402 15.9694 7.12033 15.9694 7.07541C16.0143 7.07541 16.048 7.06418 16.0705 7.04172C16.093 7.01926 16.1266 6.98557 16.1716 6.94065C16.1716 6.89573 16.194 6.86203 16.2389 6.83958C16.2839 6.81712 16.3063 6.80589 16.3063 6.80589C16.3512 6.80589 16.3962 6.79465 16.4411 6.77219C16.486 6.74973 16.5085 6.71604 16.5085 6.67112C16.5534 6.67112 16.5983 6.65989 16.6432 6.63743C16.6882 6.61497 16.7331 6.60374 16.778 6.60374C16.778 6.55882 16.8005 6.53636 16.8454 6.53636C16.8903 6.53636 16.9352 6.53636 16.9801 6.53636C17.0251 6.49144 17.0588 6.46898 17.0812 6.46898C17.1037 6.46898 17.1374 6.46898 17.1823 6.46898C17.2272 6.46898 17.2721 6.45774 17.317 6.43529C17.362 6.41283 17.4069 6.4016 17.4518 6.4016C17.4967 6.4016 17.5641 6.4016 17.654 6.4016C17.7438 6.4016 17.8112 6.4016 17.8561 6.4016ZM10.3094 6.4016C10.3543 6.4016 10.3992 6.41283 10.4441 6.43529C10.4891 6.45774 10.5115 6.46898 10.5115 6.46898C10.5564 6.46898 10.6014 6.46898 10.6463 6.46898C10.6912 6.46898 10.7361 6.49144 10.781 6.53636C10.826 6.53636 10.8597 6.53636 10.8821 6.53636C10.9046 6.53636 10.9383 6.55882 10.9832 6.60374C11.0281 6.60374 11.0618 6.61497 11.0843 6.63743C11.1067 6.65989 11.1404 6.67112 11.1853 6.67112C11.2303 6.71604 11.2639 6.74973 11.2864 6.77219C11.3089 6.79465 11.3426 6.80589 11.3875 6.80589C11.4324 6.80589 11.4661 6.81712 11.4885 6.83958C11.511 6.86203 11.5447 6.89573 11.5896 6.94065C11.6345 6.98557 11.6682 7.01926 11.6907 7.04172C11.7132 7.06418 11.7244 7.07541 11.7244 7.07541C11.7693 7.12033 11.803 7.15402 11.8255 7.17648C11.8479 7.19894 11.8816 7.23264 11.9265 7.27755C11.9265 7.32248 11.9378 7.35617 11.9602 7.37863C11.9827 7.40109 12.0164 7.43478 12.0613 7.4797C12.0613 7.4797 12.0725 7.50216 12.095 7.54708C12.1174 7.592 12.1511 7.63692 12.1961 7.68184C12.1961 7.68184 12.2073 7.7043 12.2297 7.74923C12.2522 7.79415 12.2634 7.83907 12.2634 7.88399C12.2634 7.88399 12.2747 7.90645 12.2971 7.95137C12.3196 7.99629 12.3308 8.04121 12.3308 8.08613C12.3308 8.13105 12.342 8.16475 12.3645 8.18721C12.387 8.20967 12.3982 8.24335 12.3982 8.28828C12.3982 8.3332 12.3982 8.37812 12.3982 8.42304C12.3982 8.46796 12.4207 8.51288 12.4656 8.5578C12.4656 8.5578 12.4656 8.58027 12.4656 8.62518C12.4656 8.6701 12.4656 8.71503 12.4656 8.75995C12.4656 8.80487 12.4656 8.84979 12.4656 8.89471C12.4656 8.93963 12.4656 8.98455 12.4656 9.02947C12.4207 9.02947 12.3982 9.05193 12.3982 9.09686C12.3982 9.14178 12.3982 9.1867 12.3982 9.23162C12.3982 9.27654 12.387 9.31023 12.3645 9.33269C12.342 9.35515 12.3308 9.38884 12.3308 9.43376C12.3308 9.47868 12.3196 9.52361 12.2971 9.56853C12.2747 9.61345 12.2634 9.63591 12.2634 9.63591C12.2634 9.68083 12.2522 9.72575 12.2297 9.77067C12.2073 9.81559 12.1961 9.86051 12.1961 9.90543C12.1511 9.90543 12.1174 9.92789 12.095 9.97282C12.0725 10.0177 12.0613 10.0402 12.0613 10.0402C12.0164 10.0851 11.9827 10.13 11.9602 10.175C11.9378 10.2199 11.9265 10.2423 11.9265 10.2423C11.8816 10.2873 11.8479 10.321 11.8255 10.3434C11.803 10.3659 11.7693 10.3996 11.7244 10.4445C11.7244 10.4445 11.7132 10.4669 11.6907 10.5119C11.6682 10.5568 11.6345 10.5793 11.5896 10.5793C11.5447 10.6242 11.511 10.6579 11.4885 10.6803C11.4661 10.7028 11.4324 10.714 11.3875 10.714C11.3426 10.7589 11.3089 10.7926 11.2864 10.8151C11.2639 10.8375 11.2303 10.8488 11.1853 10.8488C11.1404 10.8488 11.1067 10.86 11.0843 10.8825C11.0618 10.9049 11.0281 10.9162 10.9832 10.9162C10.9383 10.9611 10.9046 10.9835 10.8821 10.9835C10.8597 10.9835 10.826 11.006 10.781 11.0509C10.7361 11.0509 10.6912 11.0509 10.6463 11.0509C10.6014 11.0509 10.5564 11.0509 10.5115 11.0509C10.5115 11.0958 10.4891 11.1183 10.4441 11.1183C10.3992 11.1183 10.3543 11.1183 10.3094 11.1183C10.2645 11.1183 10.2195 11.1183 10.1746 11.1183C10.1297 11.1183 10.1072 11.1183 10.1072 11.1183C10.0623 11.1183 10.0174 11.1183 9.97246 11.1183C9.92754 11.1183 9.88262 11.1183 9.8377 11.1183C9.79278 11.1183 9.75909 11.1183 9.73663 11.1183C9.71417 11.1183 9.68048 11.0958 9.63556 11.0509C9.59064 11.0509 9.54571 11.0509 9.50079 11.0509C9.45587 11.0509 9.41095 11.0509 9.36603 11.0509C9.36603 11.006 9.34357 10.9835 9.29865 10.9835C9.25373 10.9835 9.20881 10.9611 9.16389 10.9162C9.11897 10.9162 9.08527 10.9049 9.06281 10.8825C9.04035 10.86 9.00666 10.8488 8.96174 10.8488C8.91682 10.8488 8.88313 10.8375 8.86067 10.8151C8.83821 10.7926 8.80452 10.7589 8.7596 10.714C8.71468 10.714 8.68099 10.7028 8.65852 10.6803C8.63606 10.6579 8.60237 10.6242 8.55745 10.5793C8.55745 10.5793 8.53499 10.5568 8.49007 10.5119C8.44515 10.4669 8.42269 10.4445 8.42269 10.4445C8.19808 10.2199 8.0184 9.96159 7.88364 9.6696C7.74887 9.37761 7.68149 9.07439 7.68149 8.75995C7.68149 8.71503 7.69272 8.6701 7.71518 8.62518C7.73764 8.58027 7.74887 8.5578 7.74887 8.5578C7.74887 8.51288 7.74887 8.46796 7.74887 8.42304C7.74887 8.37812 7.74887 8.3332 7.74887 8.28828C7.74887 8.24335 7.7601 8.20967 7.78257 8.18721C7.80503 8.16475 7.81626 8.13105 7.81626 8.08613C7.81626 8.04121 7.82749 7.99629 7.84995 7.95137C7.87241 7.90645 7.88364 7.88399 7.88364 7.88399C7.88364 7.83907 7.89487 7.79415 7.91733 7.74923C7.93979 7.7043 7.97348 7.68184 8.0184 7.68184C8.0184 7.63692 8.02963 7.592 8.05209 7.54708C8.07455 7.50216 8.08578 7.4797 8.08578 7.4797C8.1307 7.43478 8.16439 7.40109 8.18685 7.37863C8.20931 7.35617 8.22054 7.32248 8.22054 7.27755C8.26547 7.23264 8.29916 7.19894 8.32162 7.17648C8.34408 7.15402 8.37777 7.12033 8.42269 7.07541C8.42269 7.07541 8.44515 7.06418 8.49007 7.04172C8.53499 7.01926 8.55745 6.98557 8.55745 6.94065C8.60237 6.89573 8.63606 6.86203 8.65852 6.83958C8.68099 6.81712 8.71468 6.80589 8.7596 6.80589C8.80452 6.80589 8.83821 6.79465 8.86067 6.77219C8.88313 6.74973 8.91682 6.71604 8.96174 6.67112C9.00666 6.67112 9.04035 6.65989 9.06281 6.63743C9.08527 6.61497 9.11897 6.60374 9.16389 6.60374C9.20881 6.55882 9.25373 6.53636 9.29865 6.53636C9.34357 6.53636 9.36603 6.53636 9.36603 6.53636C9.41095 6.49144 9.45587 6.46898 9.50079 6.46898C9.54571 6.46898 9.59064 6.46898 9.63556 6.46898C9.68048 6.46898 9.71417 6.45774 9.73663 6.43529C9.75909 6.41283 9.79278 6.4016 9.8377 6.4016C9.92754 6.4016 10.0062 6.4016 10.0735 6.4016C10.1409 6.4016 10.2195 6.4016 10.3094 6.4016ZM25.605 6.4016C25.6499 6.4016 25.6948 6.41283 25.7397 6.43529C25.7847 6.45774 25.8296 6.46898 25.8745 6.46898C25.8745 6.46898 25.897 6.46898 25.9419 6.46898C25.9868 6.46898 26.0317 6.49144 26.0766 6.53636C26.1216 6.53636 26.1553 6.53636 26.1777 6.53636C26.2002 6.53636 26.2339 6.55882 26.2788 6.60374C26.3237 6.60374 26.3686 6.61497 26.4136 6.63743C26.4585 6.65989 26.4809 6.67112 26.4809 6.67112C26.5259 6.71604 26.5708 6.74973 26.6157 6.77219C26.6606 6.79465 26.6831 6.80589 26.6831 6.80589C26.728 6.80589 26.7617 6.81712 26.7842 6.83958C26.8066 6.86203 26.8403 6.89573 26.8852 6.94065C26.9301 6.98557 26.9638 7.01926 26.9863 7.04172C27.0088 7.06418 27.0424 7.07541 27.0874 7.07541C27.0874 7.12033 27.0986 7.15402 27.1211 7.17648C27.1435 7.19894 27.1772 7.23264 27.2221 7.27755C27.2221 7.32248 27.2334 7.35617 27.2558 7.37863C27.2783 7.40109 27.312 7.43478 27.3569 7.4797C27.3569 7.4797 27.3681 7.50216 27.3906 7.54708C27.413 7.592 27.4467 7.63692 27.4917 7.68184C27.4917 7.68184 27.5029 7.7043 27.5253 7.74923C27.5478 7.79415 27.559 7.83907 27.559 7.88399C27.559 7.88399 27.5703 7.90645 27.5927 7.95137C27.6152 7.99629 27.6264 8.04121 27.6264 8.08613C27.6713 8.13105 27.6938 8.16475 27.6938 8.18721C27.6938 8.20967 27.6938 8.24335 27.6938 8.28828C27.6938 8.3332 27.705 8.37812 27.7275 8.42304C27.75 8.46796 27.7612 8.51288 27.7612 8.5578C27.7612 8.5578 27.7612 8.58027 27.7612 8.62518C27.7612 8.6701 27.7612 8.71503 27.7612 8.75995C27.7612 8.80487 27.7612 8.84979 27.7612 8.89471C27.7612 8.93963 27.7612 8.98455 27.7612 9.02947C27.7612 9.02947 27.75 9.05193 27.7275 9.09686C27.705 9.14178 27.6938 9.1867 27.6938 9.23162C27.6938 9.27654 27.6938 9.31023 27.6938 9.33269C27.6938 9.35515 27.6713 9.38884 27.6264 9.43376C27.6264 9.47868 27.6152 9.52361 27.5927 9.56853C27.5703 9.61345 27.559 9.63591 27.559 9.63591C27.559 9.68083 27.5478 9.72575 27.5253 9.77067C27.5029 9.81559 27.4917 9.86051 27.4917 9.90543C27.4467 9.90543 27.413 9.92789 27.3906 9.97282C27.3681 10.0177 27.3569 10.0402 27.3569 10.0402C27.312 10.0851 27.2783 10.13 27.2558 10.175C27.2334 10.2199 27.2221 10.2423 27.2221 10.2423C27.1772 10.2873 27.1435 10.321 27.1211 10.3434C27.0986 10.3659 27.0874 10.3996 27.0874 10.4445C27.0424 10.4445 27.0088 10.4669 26.9863 10.5119C26.9638 10.5568 26.9301 10.5793 26.8852 10.5793C26.8403 10.6242 26.8066 10.6579 26.7842 10.6803C26.7617 10.7028 26.728 10.714 26.6831 10.714C26.6831 10.7589 26.6606 10.7926 26.6157 10.8151C26.5708 10.8375 26.5259 10.8488 26.4809 10.8488C26.4809 10.8488 26.4585 10.86 26.4136 10.8825C26.3686 10.9049 26.3237 10.9162 26.2788 10.9162C26.2339 10.9611 26.2002 10.9835 26.1777 10.9835C26.1553 10.9835 26.1216 11.006 26.0766 11.0509C26.0317 11.0509 25.9868 11.0509 25.9419 11.0509C25.897 11.0509 25.8745 11.0509 25.8745 11.0509C25.8296 11.0958 25.7847 11.1183 25.7397 11.1183C25.6948 11.1183 25.6499 11.1183 25.605 11.1183C25.5601 11.1183 25.5264 11.1183 25.5039 11.1183C25.4814 11.1183 25.4478 11.1183 25.4028 11.1183C25.3579 11.1183 25.313 11.1183 25.2681 11.1183C25.2231 11.1183 25.1782 11.1183 25.1333 11.1183C25.0884 11.1183 25.0547 11.1183 25.0322 11.1183C25.0098 11.1183 24.9761 11.0958 24.9312 11.0509C24.8862 11.0509 24.8413 11.0509 24.7964 11.0509C24.7515 11.0509 24.729 11.0509 24.729 11.0509C24.6841 11.006 24.6392 10.9835 24.5943 10.9835C24.5493 10.9835 24.5044 10.9611 24.4595 10.9162C24.4146 10.9162 24.3809 10.9049 24.3584 10.8825C24.336 10.86 24.3023 10.8488 24.2573 10.8488C24.2124 10.8488 24.1787 10.8375 24.1563 10.8151C24.1338 10.7926 24.1001 10.7589 24.0552 10.714C24.0552 10.714 24.0327 10.7028 23.9878 10.6803C23.9429 10.6579 23.898 10.6242 23.8531 10.5793C23.8531 10.5793 23.8306 10.5568 23.7857 10.5119C23.7408 10.4669 23.7183 10.4445 23.7183 10.4445C23.6734 10.3996 23.6397 10.3659 23.6172 10.3434C23.5948 10.321 23.5835 10.2873 23.5835 10.2423C23.5386 10.2423 23.5049 10.2199 23.4825 10.175C23.46 10.13 23.4488 10.0851 23.4488 10.0402C23.4038 10.0402 23.3702 10.0177 23.3477 9.97282C23.3252 9.92789 23.314 9.90543 23.314 9.90543C23.2691 9.86051 23.2466 9.81559 23.2466 9.77067C23.2466 9.72575 23.2242 9.68083 23.1792 9.63591C23.1792 9.63591 23.168 9.61345 23.1456 9.56853C23.1231 9.52361 23.1119 9.47868 23.1119 9.43376C23.1119 9.38884 23.1006 9.35515 23.0782 9.33269C23.0557 9.31023 23.0445 9.27654 23.0445 9.23162C23.0445 9.1867 23.0445 9.14178 23.0445 9.09686C23.0445 9.05193 23.0445 9.02947 23.0445 9.02947C23.0445 8.98455 23.0445 8.93963 23.0445 8.89471C23.0445 8.84979 23.0445 8.80487 23.0445 8.75995C23.0445 8.71503 23.0445 8.6701 23.0445 8.62518C23.0445 8.58027 23.0445 8.5578 23.0445 8.5578C23.0445 8.51288 23.0445 8.46796 23.0445 8.42304C23.0445 8.37812 23.0445 8.3332 23.0445 8.28828C23.0445 8.24335 23.0557 8.20967 23.0782 8.18721C23.1006 8.16475 23.1119 8.13105 23.1119 8.08613C23.1119 8.04121 23.1231 7.99629 23.1456 7.95137C23.168 7.90645 23.1792 7.88399 23.1792 7.88399C23.2242 7.83907 23.2466 7.79415 23.2466 7.74923C23.2466 7.7043 23.2691 7.68184 23.314 7.68184C23.314 7.63692 23.3252 7.592 23.3477 7.54708C23.3702 7.50216 23.4038 7.4797 23.4488 7.4797C23.4488 7.43478 23.46 7.40109 23.4825 7.37863C23.5049 7.35617 23.5386 7.32248 23.5835 7.27755C23.5835 7.23264 23.5948 7.19894 23.6172 7.17648C23.6397 7.15402 23.6734 7.12033 23.7183 7.07541C23.7183 7.07541 23.7408 7.06418 23.7857 7.04172C23.8306 7.01926 23.8531 6.98557 23.8531 6.94065C23.898 6.89573 23.9429 6.86203 23.9878 6.83958C24.0327 6.81712 24.0552 6.80589 24.0552 6.80589C24.1001 6.80589 24.1338 6.79465 24.1563 6.77219C24.1787 6.74973 24.2124 6.71604 24.2573 6.67112C24.3023 6.67112 24.336 6.65989 24.3584 6.63743C24.3809 6.61497 24.4146 6.60374 24.4595 6.60374C24.5044 6.55882 24.5493 6.53636 24.5943 6.53636C24.6392 6.53636 24.6841 6.53636 24.729 6.53636C24.729 6.49144 24.7515 6.46898 24.7964 6.46898C24.8413 6.46898 24.8862 6.46898 24.9312 6.46898C24.9761 6.46898 25.0098 6.45774 25.0322 6.43529C25.0547 6.41283 25.0884 6.4016 25.1333 6.4016C25.2231 6.4016 25.3018 6.4016 25.3691 6.4016C25.4365 6.4016 25.5151 6.4016 25.605 6.4016Z" fill="#4BD965"/>
</svg>
