<svg width="82" height="82" viewBox="0 0 82 82" fill="none" xmlns="http://www.w3.org/2000/svg">
<path d="M41 0C41.3737 0 41.7207 0.0800781 42.041 0.240234C42.3613 0.400391 42.6549 0.61393 42.9219 0.880859C42.9219 0.934242 42.9352 0.974281 42.9619 1.00098C42.9886 1.02767 43.0286 1.06771 43.082 1.12109C45.4844 3.73698 47.4863 6.60645 49.0879 9.72949C50.6895 12.8525 51.8105 16.1224 52.4512 19.5391H69.9883C71.9635 19.5391 73.6585 20.2464 75.0732 21.6611C76.488 23.0758 77.1953 24.7708 77.1953 26.7461V67.5859H79.5977C80.2383 67.5859 80.7988 67.8262 81.2793 68.3066C81.7598 68.7871 82 69.3477 82 69.9883C82 73.2982 80.8255 76.1276 78.4766 78.4766C76.1276 80.8255 73.2982 82 69.9883 82H12.0117C8.70182 82 5.8724 80.8255 3.52344 78.4766C1.17448 76.1276 0 73.2982 0 69.9883C0 69.3477 0.240234 68.7871 0.720703 68.3066C1.20117 67.8262 1.76172 67.5859 2.40234 67.5859H4.80469V26.7461C4.80469 24.7708 5.51204 23.0758 6.92676 21.6611C8.34147 20.2464 10.0365 19.5391 12.0117 19.5391H29.5488C30.1895 16.0156 31.3239 12.6924 32.9521 9.56934C34.5804 6.44629 36.5957 3.60352 38.998 1.04102C38.998 1.04102 39.0114 1.02767 39.0381 1.00098C39.0648 0.974281 39.1048 0.934242 39.1582 0.880859C39.3717 0.61393 39.6387 0.400391 39.959 0.240234C40.2793 0.0800781 40.6263 0 41 0ZM76.7949 72.3906H5.20508C5.68555 73.7786 6.55306 74.9264 7.80762 75.834C9.06217 76.7415 10.4635 77.1953 12.0117 77.1953H69.9883C71.5365 77.1953 72.9378 76.7415 74.1924 75.834C75.4469 74.9264 76.3145 73.7786 76.7949 72.3906ZM69.9883 24.3438H53.0117C53.0117 24.6107 53.0117 24.8776 53.0117 25.1445C53.0117 25.4115 53.0117 25.6784 53.0117 25.9453C53.0117 28.9349 52.7715 31.6042 52.291 33.9531C51.8105 36.3021 51.25 38.3841 50.6094 40.1992L54.6934 44.2832C55.1738 44.7637 55.4141 45.3242 55.4141 45.9648C55.4141 46.6055 55.1738 47.166 54.6934 47.6465C54.2129 48.127 53.6523 48.3672 53.0117 48.3672C52.3711 48.3672 51.8105 48.127 51.3301 47.6465L48.7676 45.084C48.6608 45.3509 48.554 45.5911 48.4473 45.8047C48.3405 46.0182 48.2604 46.2051 48.207 46.3652V53.1719C49.9688 53.1719 51.5837 53.6123 53.0518 54.4932C54.5199 55.374 55.681 56.5618 56.5352 58.0566C56.7487 58.0566 56.9622 58.0433 57.1758 58.0166C57.3893 57.9899 57.6029 57.9766 57.8164 57.9766C59.0977 57.9766 60.3255 58.2168 61.5 58.6973C62.6745 59.1777 63.7422 59.8717 64.7031 60.7793C65.6107 61.6868 66.318 62.7279 66.8252 63.9023C67.3324 65.0768 67.5859 66.3047 67.5859 67.5859H72.3906V26.7461C72.3906 26.1055 72.1504 25.5449 71.6699 25.0645C71.1895 24.584 70.6289 24.3438 69.9883 24.3438ZM43.4023 48.3672H38.5977V53.1719C38.5977 54.5065 38.1305 55.641 37.1963 56.5752C36.262 57.5094 35.1276 57.9766 33.793 57.9766C32.7253 57.9766 31.7643 58.3102 30.9102 58.9775C30.056 59.6449 29.4688 60.4857 29.1484 61.5C28.9883 62.194 28.5879 62.7012 27.9473 63.0215C27.3066 63.3418 26.6393 63.3685 25.9453 63.1016C25.6784 62.9948 25.3981 62.9147 25.1045 62.8613C24.8109 62.8079 24.5039 62.7812 24.1836 62.7812C22.849 62.7812 21.7145 63.2484 20.7803 64.1826C19.846 65.1169 19.3789 66.2513 19.3789 67.5859H62.7812C62.7812 66.3047 62.2874 65.1836 61.2998 64.2227C60.3122 63.2617 59.151 62.7812 57.8164 62.7812C57.4961 62.7812 57.1891 62.8079 56.8955 62.8613C56.6019 62.9147 56.3216 62.9948 56.0547 63.1016C55.3607 63.3685 54.6934 63.3418 54.0527 63.0215C53.4121 62.7012 53.0117 62.194 52.8516 61.5C52.5312 60.4857 51.944 59.6449 51.0898 58.9775C50.2357 58.3102 49.2747 57.9766 48.207 57.9766C46.8724 57.9766 45.738 57.5094 44.8037 56.5752C43.8695 55.641 43.4023 54.5065 43.4023 53.1719V48.3672ZM28.9883 24.3438H12.0117C11.3711 24.3438 10.8105 24.584 10.3301 25.0645C9.84961 25.5449 9.60938 26.1055 9.60938 26.7461V67.5859H14.5742C14.5742 64.9167 15.5085 62.6478 17.377 60.7793C19.2454 58.9108 21.5143 57.9766 24.1836 57.9766C24.3971 57.9766 24.6107 57.9899 24.8242 58.0166C25.0378 58.0433 25.2513 58.0566 25.4648 58.0566C26.319 56.5618 27.4801 55.374 28.9482 54.4932C30.4163 53.6123 32.0312 53.1719 33.793 53.1719V46.3652C33.7396 46.2051 33.6595 46.0182 33.5527 45.8047C33.446 45.5911 33.3392 45.3509 33.2324 45.084L30.6699 47.6465C30.1895 48.127 29.6289 48.3672 28.9883 48.3672C28.3477 48.3672 27.7871 48.127 27.3066 47.6465C26.8262 47.166 26.5859 46.6055 26.5859 45.9648C26.5859 45.3242 26.8262 44.7637 27.3066 44.2832L31.3906 40.1992C30.5898 37.8503 29.9893 35.488 29.5889 33.1123C29.1885 30.7367 28.9883 28.3477 28.9883 25.9453C28.9883 25.6784 28.9883 25.4115 28.9883 25.1445C28.9883 24.8776 28.9883 24.6107 28.9883 24.3438ZM46.0449 38.7578H35.9551C36.222 39.5586 36.5023 40.306 36.7959 41C37.0895 41.694 37.3431 42.3346 37.5566 42.9219C37.61 43.0286 37.6634 43.1354 37.7168 43.2422C37.7702 43.349 37.8236 43.4557 37.877 43.5625H44.123C44.1764 43.4557 44.2298 43.349 44.2832 43.2422C44.3366 43.1354 44.39 43.002 44.4434 42.8418C44.6569 42.3079 44.9105 41.694 45.2041 41C45.4977 40.306 45.778 39.5586 46.0449 38.7578ZM47.5664 19.5391H34.4336C34.2201 20.6068 34.0599 21.6611 33.9531 22.7021C33.8464 23.7432 33.793 24.8242 33.793 25.9453C33.793 27.4401 33.873 28.8548 34.0332 30.1895C34.1934 31.5241 34.3802 32.7786 34.5938 33.9531H47.4062C47.6198 32.7786 47.8066 31.5241 47.9668 30.1895C48.127 28.8548 48.207 27.4401 48.207 25.9453C48.207 24.8776 48.1536 23.8099 48.0469 22.7422C47.9401 21.6745 47.7799 20.6068 47.5664 19.5391ZM41 24.3438C41.6406 24.3438 42.2012 24.584 42.6816 25.0645C43.1621 25.5449 43.4023 26.1055 43.4023 26.7461C43.4023 27.3867 43.1621 27.9473 42.6816 28.4277C42.2012 28.9082 41.6406 29.1484 41 29.1484C40.3594 29.1484 39.7988 28.9082 39.3184 28.4277C38.8379 27.9473 38.5977 27.3867 38.5977 26.7461C38.5977 26.1055 38.8379 25.5449 39.3184 25.0645C39.7988 24.584 40.3594 24.3438 41 24.3438ZM41 6.00586C39.9323 7.34049 38.9714 8.74186 38.1172 10.21C37.263 11.6781 36.5156 13.1862 35.875 14.7344H46.125C45.4844 13.1862 44.737 11.6781 43.8828 10.21C43.0286 8.74186 42.0677 7.34049 41 6.00586Z" fill="#007AFE"/>
</svg>
