<svg width="87" height="87" viewBox="0 0 87 87" fill="none" xmlns="http://www.w3.org/2000/svg">
<path d="M43.5 0C37.4961 0 31.8604 1.13281 26.5928 3.39844C21.3252 5.7207 16.7231 8.8501 12.7866 12.7866C8.8501 16.7231 5.7207 21.3252 3.39844 26.5928C1.13281 31.8604 0 37.4961 0 43.5C0 49.5039 1.13281 55.1396 3.39844 60.4072C5.7207 65.6748 8.8501 70.2769 12.7866 74.2134C16.7231 78.1499 21.3252 81.2793 26.5928 83.6016C31.8604 85.8672 37.4961 87 43.5 87C49.5039 87 55.1396 85.8672 60.4072 83.6016C65.6748 81.2793 70.2769 78.1499 74.2134 74.2134C78.1499 70.2769 81.2793 65.6748 83.6016 60.4072C85.8672 55.1396 87 49.5039 87 43.5C87 37.4961 85.8672 31.8604 83.6016 26.5928C81.2793 21.3252 78.1499 16.7231 74.2134 12.7866C70.2769 8.8501 65.6748 5.7207 60.4072 3.39844C55.1396 1.13281 49.5039 0 43.5 0ZM43.5 81.2227C38.2891 81.2227 33.3896 80.2314 28.8018 78.249C24.2139 76.2666 20.2207 73.5762 16.8223 70.1777C13.4238 66.7793 10.7334 62.7861 8.75098 58.1982C6.76855 53.6104 5.77734 48.7109 5.77734 43.5C5.77734 38.2891 6.76855 33.3896 8.75098 28.8018C10.7334 24.2139 13.4238 20.2207 16.8223 16.8223C20.2207 13.4238 24.2139 10.7334 28.8018 8.75098C33.3896 6.76855 38.2891 5.77734 43.5 5.77734C48.7109 5.77734 53.6104 6.76855 58.1982 8.75098C62.7861 10.7334 66.7793 13.4238 70.1777 16.8223C73.5762 20.2207 76.2666 24.2139 78.249 28.8018C80.2314 33.3896 81.2227 38.2891 81.2227 43.5C81.2227 48.7109 80.2314 53.6104 78.249 58.1982C76.2666 62.7861 73.5762 66.7793 70.1777 70.1777C66.7793 73.5762 62.7861 76.2666 58.1982 78.249C53.6104 80.2314 48.7109 81.2227 43.5 81.2227ZM43.5 23.874C40.7812 23.874 38.2324 24.3838 35.8535 25.4033C33.4746 26.4229 31.3931 27.8247 29.6089 29.6089C27.8247 31.3931 26.4229 33.4746 25.4033 35.8535C24.3838 38.2324 23.874 40.7812 23.874 43.5C23.874 46.2188 24.3838 48.7676 25.4033 51.1465C26.4229 53.5254 27.8247 55.6069 29.6089 57.3911C31.3931 59.1753 33.4746 60.5771 35.8535 61.5967C38.2324 62.6162 40.7812 63.126 43.5 63.126C46.2188 63.126 48.7676 62.6162 51.1465 61.5967C53.5254 60.5771 55.6069 59.1753 57.3911 57.3911C59.1753 55.6069 60.5771 53.5254 61.5967 51.1465C62.6162 48.7676 63.126 46.2188 63.126 43.5C63.126 40.7812 62.6162 38.2324 61.5967 35.8535C60.5771 33.4746 59.1753 31.3931 57.3911 29.6089C55.6069 27.8247 53.5254 26.4229 51.1465 25.4033C48.7676 24.3838 46.2188 23.874 43.5 23.874ZM43.5 57.3486C39.6484 57.3486 36.3774 56.0034 33.687 53.313C30.9966 50.6226 29.6514 47.3516 29.6514 43.5C29.6514 39.6484 30.9966 36.3774 33.687 33.687C36.3774 30.9966 39.6484 29.6514 43.5 29.6514C47.3516 29.6514 50.6226 30.9966 53.313 33.687C56.0034 36.3774 57.3486 39.6484 57.3486 43.5C57.3486 47.3516 56.0034 50.6226 53.313 53.313C50.6226 56.0034 47.3516 57.3486 43.5 57.3486ZM43.5 50.4668C45.4258 50.4668 47.0684 49.7871 48.4277 48.4277C49.7871 47.0684 50.4668 45.4258 50.4668 43.5C50.4668 41.5742 49.7871 39.9316 48.4277 38.5723C47.0684 37.2129 45.4258 36.5332 43.5 36.5332C41.5742 36.5332 39.9316 37.2129 38.5723 38.5723C37.2129 39.9316 36.5332 41.5742 36.5332 43.5C36.5332 45.4258 37.2129 47.0684 38.5723 48.4277C39.9316 49.7871 41.5742 50.4668 43.5 50.4668Z" fill="#6056DE"/>
</svg>
