<svg width="51" height="49" viewBox="0 0 51 49" fill="none" xmlns="http://www.w3.org/2000/svg">
<g clip-path="url(#clip0_49_1312)">
<path d="M1.31445 9.75179C1.31445 5.42097 4.82527 1.91016 9.15609 1.91016H40.7245C45.0554 1.91016 48.5662 5.42097 48.5662 9.75179V40.1381C48.5662 44.4689 45.0554 47.9797 40.7245 47.9797H9.15608C4.82526 47.9797 1.31445 44.4689 1.31445 40.1381V9.75179Z" fill="url(#paint0_radial_49_1312)" stroke="#D8A1FF" stroke-width="1.96041"/>
<path d="M36.3686 24.7433C37.5094 24.7433 37.9121 24.7433 38.0239 24.6984C38.0239 24.5413 38.0686 24.429 38.0686 24.3168C38.0686 23.1048 37.4871 20.8604 35.1606 20.8604C33.0132 20.8604 32.0961 22.7456 31.8724 24.7433H36.3686ZM31.8277 27.818C31.8724 30.848 33.3041 32.8904 36.7042 32.8904C38.024 32.8904 39.1648 32.711 40.3504 32.1947C40.507 32.1274 40.6189 32.1498 40.6189 32.3518V35.1573C40.6189 35.3816 40.5518 35.494 40.3952 35.6062C39.2097 36.1896 37.7332 36.459 35.899 36.459C29.9937 36.459 27.779 32.0825 27.779 27.2122C27.779 21.9154 30.5082 17.5838 35.3175 17.5838C40.194 17.5838 41.894 21.691 41.894 25.0352C41.894 26.1125 41.8269 26.9878 41.7151 27.4143C41.6704 27.5938 41.6033 27.6612 41.4242 27.7061C40.9769 27.7734 39.657 27.8631 37.6886 27.8631H31.8277V27.818ZM19.838 25.5288C19.2116 23.0374 17.6905 17.606 17.1313 14.9802H17.0865C16.6168 17.606 15.3864 22.0499 14.4693 25.5288H19.838ZM13.5521 29.1647L11.785 35.8755C11.7403 36.0549 11.6732 36.1223 11.4494 36.1223H8.16116C7.9375 36.1223 7.89268 36.055 7.9375 35.7857L14.2903 13.4989C14.4022 13.0949 14.4692 12.7807 14.5139 11.6585C14.5139 11.5014 14.5811 11.4341 14.6929 11.4341H19.3904C19.547 11.4341 19.614 11.479 19.6589 11.6585L26.7722 35.8306C26.8169 36.0101 26.7722 36.1223 26.5933 36.1223H22.9024C22.7235 36.1223 22.6116 36.055 22.5669 35.898L20.7325 29.1648L13.5521 29.1647Z" fill="#D8A1FF"/>
</g>
<defs>
<radialGradient id="paint0_radial_49_1312" cx="0" cy="0" r="1" gradientUnits="userSpaceOnUse" gradientTransform="translate(16.5423 11.6935) scale(37.4012 36.3322)">
<stop stop-color="#442F55" stop-opacity="0.98"/>
<stop offset="1" stop-color="#12002C"/>
</radialGradient>
<clipPath id="clip0_49_1312">
<rect width="49.9904" height="48.03" fill="white" transform="translate(0.333984 0.930176)"/>
</clipPath>
</defs>
</svg>
