<svg width="55" height="52" viewBox="0 0 55 52" fill="none" xmlns="http://www.w3.org/2000/svg">
<g clip-path="url(#clip0_49_1304)">
<path d="M1.39062 9.5288C1.39062 4.85083 5.18286 1.05859 9.86083 1.05859H43.9598C48.6377 1.05859 52.43 4.85083 52.43 9.5288V42.3508C52.43 47.0288 48.6377 50.821 43.9598 50.821H9.86082C5.18285 50.821 1.39062 47.0288 1.39062 42.3508V9.5288Z" fill="url(#paint0_radial_49_1304)" stroke="#FF7F18" stroke-width="2.11755"/>
<path d="M36.244 19.9519C36.244 19.7581 36.3164 19.661 36.534 19.661H40.3274C40.5206 19.661 40.6173 19.7337 40.6173 19.9519V39.0798C40.6173 39.2735 40.569 39.3706 40.3274 39.3706H36.5823C36.3407 39.3706 36.2681 39.2494 36.2681 39.0555V19.9519H36.244ZM35.9782 14.4488C35.9782 12.8972 37.0655 11.9761 38.4429 11.9761C39.9167 11.9761 40.9073 12.9699 40.9073 14.4488C40.9073 16.0488 39.8684 16.9215 38.3945 16.9215C36.993 16.9216 35.9782 16.0488 35.9782 14.4488ZM25.1053 27.9279C24.4288 25.2369 22.8341 19.3701 22.2299 16.5337H22.1817C21.6742 19.3701 20.3936 24.1702 19.3789 27.9279H25.1053ZM18.3882 31.8553L16.4793 39.1283C16.431 39.322 16.3585 39.3705 16.1169 39.3705H12.5651C12.3235 39.3705 12.2751 39.2978 12.3235 39.0069L19.1855 14.9093C19.3063 14.473 19.3788 14.0852 19.4271 12.8972C19.4271 12.7276 19.4996 12.6549 19.6204 12.6549H24.6944C24.8635 12.6549 24.9361 12.7033 24.9844 12.8972L32.668 39.0554C32.7163 39.2493 32.668 39.3705 32.4746 39.3705H28.4637C28.2705 39.3705 28.1496 39.322 28.1014 39.1525L26.12 31.8553H18.3882Z" fill="#FF7F18"/>
</g>
<defs>
<radialGradient id="paint0_radial_49_1304" cx="0" cy="0" r="1" gradientUnits="userSpaceOnUse" gradientTransform="translate(17.8391 11.6261) scale(40.3992 39.2446)">
<stop stop-color="#423325" stop-opacity="0.98"/>
<stop offset="1" stop-color="#1C0A00"/>
</radialGradient>
<clipPath id="clip0_49_1304">
<rect width="53.9976" height="51.88" fill="white" transform="translate(0.332031)"/>
</clipPath>
</defs>
</svg>
