<svg width="40" height="44" viewBox="0 0 40 44" fill="none" xmlns="http://www.w3.org/2000/svg">
<path d="M32.6758 12.5469C32.6758 12.6042 32.6758 12.6615 32.6758 12.7188C32.6758 12.776 32.6758 12.8333 32.6758 12.8906V30.7227C32.6758 31.6966 32.3392 32.5202 31.666 33.1934C30.9928 33.8665 30.1693 34.2031 29.1953 34.2031H29.0664V41.25C29.0664 42.0234 28.7943 42.6751 28.25 43.2051C27.7057 43.735 27.0469 44 26.2734 44C25.5 44 24.8411 43.735 24.2969 43.2051C23.7526 42.6751 23.4805 42.0234 23.4805 41.25V34.2031H16.4766L16.5195 41.25C16.5195 42.0234 16.2474 42.6751 15.7031 43.2051C15.1589 43.735 14.5 44 13.7266 44C12.9531 44 12.2943 43.735 11.75 43.2051C11.2057 42.6751 10.9336 42.0234 10.9336 41.25V34.2031H10.8047C9.85938 34.2031 9.05729 33.888 8.39844 33.2578C7.73958 32.6276 7.38151 31.8542 7.32422 30.9375V30.7227V12.8906C7.32422 12.8333 7.32422 12.776 7.32422 12.7188C7.32422 12.6615 7.33854 12.6042 7.36719 12.5469H32.6758ZM2.85547 14.1367C3.62891 14.1367 4.28776 14.4089 4.83203 14.9531C5.3763 15.4974 5.64844 16.1419 5.64844 16.8867V28.6602C5.64844 29.4336 5.3763 30.0853 4.83203 30.6152C4.28776 31.1452 3.62891 31.4102 2.85547 31.4102C2.08203 31.4102 1.42318 31.1452 0.878906 30.6152C0.334635 30.0853 0.0625 29.4336 0.0625 28.6602V16.8867C0.0625 16.1419 0.334635 15.4974 0.878906 14.9531C1.42318 14.4089 2.08203 14.1367 2.85547 14.1367ZM37.1445 14.1367C37.918 14.1367 38.5768 14.4089 39.1211 14.9531C39.6654 15.4974 39.9375 16.1419 39.9375 16.8867V28.6602C39.9375 29.4336 39.6654 30.0853 39.1211 30.6152C38.5768 31.1452 37.918 31.4102 37.1445 31.4102C36.3711 31.4102 35.7122 31.1452 35.168 30.6152C34.6237 30.0853 34.3516 29.4336 34.3516 28.6602V16.8867C34.3516 16.1419 34.6237 15.4974 35.168 14.9531C35.7122 14.4089 36.3711 14.1367 37.1445 14.1367ZM31.7305 0.0429688C31.8164 0.0716133 31.8665 0.128906 31.8809 0.214844C31.8952 0.300781 31.888 0.372395 31.8594 0.429688L29.4961 4.46875C30.4414 5.38542 31.1862 6.43815 31.7305 7.62695C32.2747 8.81575 32.5612 10.069 32.5898 11.3867H7.41016C7.4388 10.069 7.72526 8.81575 8.26953 7.62695C8.8138 6.43815 9.55859 5.38542 10.5039 4.46875L8.14062 0.429688C8.11198 0.372395 8.10482 0.300781 8.11914 0.214844C8.13346 0.128906 8.18359 0.0716133 8.26953 0.0429688C8.32682 0.0143242 8.39128 0.00716019 8.46289 0.0214844C8.5345 0.0358086 8.59896 0.0716133 8.65625 0.128906L10.9336 4.03906C11.9362 3.17969 13.0892 2.46354 14.3926 1.89062C15.696 1.31771 17.0924 0.959637 18.582 0.816406H21.418C22.9076 0.959637 24.304 1.31771 25.6074 1.89062C26.9108 2.46354 28.0638 3.17969 29.0664 4.03906L31.3438 0.128906C31.401 0.0716133 31.4655 0.0358086 31.5371 0.0214844C31.6087 0.00716019 31.6732 0.0143242 31.7305 0.0429688ZM14.8008 5.07031C14.3997 5.07031 14.0632 5.20638 13.791 5.47852C13.5189 5.75065 13.3828 6.08724 13.3828 6.48828C13.3828 6.86068 13.5189 7.18294 13.791 7.45508C14.0632 7.72721 14.3997 7.86328 14.8008 7.86328C15.2018 7.86328 15.5456 7.72721 15.832 7.45508C16.1185 7.18294 16.2617 6.86068 16.2617 6.48828C16.2617 6.08724 16.1185 5.75065 15.832 5.47852C15.5456 5.20638 15.2018 5.07031 14.8008 5.07031ZM25.5859 5.07031C25.1849 5.07031 24.8411 5.20638 24.5547 5.47852C24.2682 5.75065 24.125 6.08724 24.125 6.48828C24.125 6.86068 24.2682 7.18294 24.5547 7.45508C24.8411 7.72721 25.1849 7.86328 25.5859 7.86328C25.987 7.86328 26.3236 7.72721 26.5957 7.45508C26.8678 7.18294 27.0039 6.86068 27.0039 6.48828C27.0039 6.08724 26.8678 5.75065 26.5957 5.47852C26.3236 5.20638 25.987 5.07031 25.5859 5.07031Z" fill="white"/>
</svg>
