<svg width="36" height="44" viewBox="0 0 36 44" fill="none" xmlns="http://www.w3.org/2000/svg">
<path d="M29.9713 23.375C29.9713 25.0365 30.2864 26.4401 30.9166 27.586C31.5181 28.7032 32.1841 29.6127 32.9146 30.3145C33.6451 31.0163 34.3111 31.5105 34.9127 31.7969C35.5142 32.112 35.8293 32.2696 35.858 32.2696C35.8293 32.3555 35.5787 33.0359 35.106 34.3106C34.6334 35.5853 33.8671 36.9961 32.8072 38.543C31.8905 39.8894 30.9166 41.1211 29.8853 42.2383C28.8541 43.3555 27.5936 43.9284 26.1041 43.9571C24.6431 43.9857 23.4901 43.6993 22.6451 43.0977C21.8 42.4961 20.5325 42.1954 18.8423 42.1954C17.1809 42.1954 15.9133 42.4818 15.0396 43.0547C14.1659 43.6276 13.0416 43.9428 11.6666 44C10.2056 44.0573 8.91657 43.4773 7.79938 42.2598C6.68219 41.0424 5.65094 39.7605 4.70563 38.4141C3.78896 37.0678 2.94391 35.4636 2.17047 33.6016C1.39704 31.7683 0.83128 29.8418 0.473207 27.8223C0.115134 25.8028 0.0363582 23.7904 0.236879 21.7852C0.408754 19.78 0.981671 17.9323 1.95563 16.2422C2.90094 14.5808 4.18284 13.2559 5.80133 12.2676C7.41982 11.2793 9.16006 10.7709 11.022 10.7422C12.4543 10.7136 13.8078 11.0287 15.0826 11.6875C16.3573 12.3464 17.4244 12.6758 18.2838 12.6758C19.1431 12.6758 20.3319 12.2963 21.8502 11.5372C23.3684 10.778 24.9726 10.4844 26.6627 10.6563C27.3788 10.6849 28.5748 10.9428 30.2506 11.4297C31.9263 11.9167 33.4088 13.1055 34.6978 14.9961C34.6119 15.0534 33.7955 15.7696 32.2486 17.1446C30.7017 18.5196 29.9426 20.5964 29.9713 23.375ZM24.4283 7.00395C25.2017 6.08728 25.8104 5.01306 26.2545 3.78129C26.6985 2.54952 26.8489 1.28911 26.7056 4.57764e-05C25.6171 0.0573374 24.4713 0.393923 23.2681 1.00981C22.065 1.62569 21.0624 2.40629 20.2603 3.35161C19.5442 4.15369 18.9354 5.17062 18.4341 6.40239C17.9328 7.63416 17.7681 8.88025 17.94 10.1407C19.1718 10.2266 20.3749 9.96163 21.5494 9.34575C22.7239 8.72986 23.6835 7.94926 24.4283 7.00395Z" fill="white"/>
</svg>
