<svg width="54" height="49" viewBox="0 0 54 49" fill="none" xmlns="http://www.w3.org/2000/svg">
<g clip-path="url(#clip0_49_1269)">
<path d="M26.5809 0L11.6046 1.58348L0.00976562 17.1481L26.5809 48.09L53.1521 17.1481L41.5575 1.58348L26.5809 0Z" fill="#FDB300"/>
<path d="M0.00976562 17.1484L26.5809 48.0901L10.7723 17.1484H0.00976562Z" fill="#EB6C00"/>
<path d="M42.3904 17.1484L26.582 48.0901L53.1529 17.1484H42.3904Z" fill="#EB6C00"/>
<path d="M10.7734 17.1484L26.582 48.0901L42.3906 17.1484H10.7734Z" fill="#FDAD00"/>
<path d="M11.6057 1.58348L10.7734 17.1481L26.582 0L11.6057 1.58348Z" fill="#FDD231"/>
<path d="M42.3904 17.1482L41.5584 1.58327L26.582 0L42.3904 17.1482Z" fill="#FDD231"/>
<path d="M42.3888 17.1484H53.1511L41.5566 1.5835L42.3888 17.1484Z" fill="#FDAD00"/>
<path d="M0.00976562 17.1484H10.7723L11.6046 1.5835L0.00976562 17.1484Z" fill="#FDAD00"/>
<path d="M26.582 0L10.7734 17.1481H42.3906L26.582 0Z" fill="#FEEEB7"/>
</g>
<defs>
<clipPath id="clip0_49_1269">
<rect width="53.9786" height="48.09" fill="white" transform="translate(0.00976562)"/>
</clipPath>
</defs>
</svg>
