<svg width="74" height="74" viewBox="0 0 74 74" fill="none" xmlns="http://www.w3.org/2000/svg">
<path d="M35.2656 18.2832C35.6992 17.7051 36.2894 17.416 37.0361 17.416C37.7829 17.416 38.373 17.7051 38.8066 18.2832L56.2227 42.2754C56.4154 42.5645 56.5358 42.9017 56.584 43.2871C56.6322 43.6725 56.584 44.0579 56.4395 44.4434L49.0684 60.9199H50.0078C50.5859 60.9199 51.0918 61.1367 51.5254 61.5703C51.959 62.0039 52.1758 62.5098 52.1758 63.0879V71.832C52.1758 72.4102 51.959 72.916 51.5254 73.3496C51.0918 73.7832 50.5859 74 50.0078 74H23.9922C23.4141 74 22.9082 73.7832 22.4746 73.3496C22.041 72.916 21.8242 72.4102 21.8242 71.832V63.0879C21.8242 62.5098 22.041 62.0039 22.4746 61.5703C22.9082 61.1367 23.4141 60.9199 23.9922 60.9199H25.0039L17.7051 44.4434C17.5124 44.0579 17.4401 43.6725 17.4883 43.2871C17.5365 42.9017 17.681 42.5645 17.9219 42.2754L35.2656 18.2832ZM47.8398 65.3281H26.1602V69.6641H47.8398V65.3281ZM39.168 26.1602V39.5293C40.4206 40.0111 41.4564 40.806 42.2754 41.9141C43.0944 43.0221 43.5039 44.2747 43.5039 45.6719C43.5039 47.5026 42.8656 49.0563 41.5889 50.333C40.3122 51.6097 38.7826 52.248 37 52.248C35.2174 52.248 33.6878 51.6097 32.4111 50.333C31.1344 49.0563 30.4961 47.5026 30.4961 45.6719C30.4961 44.2747 30.9056 43.0221 31.7246 41.9141C32.5436 40.806 33.5794 40.0111 34.832 39.5293V26.3047L22.1133 43.793L29.7734 60.9199H44.3711L51.959 43.793L39.168 26.1602ZM37 43.5039C36.4219 43.5039 35.916 43.7207 35.4824 44.1543C35.0488 44.5879 34.832 45.0938 34.832 45.6719C34.832 46.2982 35.0488 46.8281 35.4824 47.2617C35.916 47.6953 36.4219 47.9121 37 47.9121C37.5781 47.9121 38.084 47.6953 38.5176 47.2617C38.9512 46.8281 39.168 46.2982 39.168 45.6719C39.168 45.0938 38.9512 44.5879 38.5176 44.1543C38.084 43.7207 37.5781 43.5039 37 43.5039ZM41.3359 0C41.9141 0 42.4199 0.216797 42.8535 0.650391C43.2871 1.08398 43.5039 1.58984 43.5039 2.16797V4.33594H61.3535C61.7871 3.08334 62.57 2.04752 63.7021 1.22852C64.8343 0.409508 66.099 0 67.4961 0C69.2786 0 70.8083 0.638344 72.085 1.91504C73.3617 3.19173 74 4.72135 74 6.50391C74 8.33463 73.3617 9.88834 72.085 11.165C70.8083 12.4417 69.2786 13.0801 67.4961 13.0801C66.099 13.0801 64.8343 12.6706 63.7021 11.8516C62.57 11.0326 61.7871 9.97266 61.3535 8.67188H53.2598C55.235 9.82812 57.0898 11.2012 58.8242 12.791C60.5104 14.3327 62.028 16.0309 63.377 17.8857C64.7259 19.7406 65.8581 21.752 66.7734 23.9199C67.737 26.0879 68.4596 28.3281 68.9414 30.6406C70.3385 31.026 71.5068 31.7969 72.4463 32.9531C73.3857 34.1094 73.8555 35.4583 73.8555 37C73.8555 38.7826 73.2171 40.3122 71.9404 41.5889C70.6637 42.8656 69.1341 43.5039 67.3516 43.5039C65.569 43.5039 64.0394 42.8656 62.7627 41.5889C61.486 40.3122 60.8477 38.7826 60.8477 37C60.8477 35.6992 61.1969 34.5189 61.8955 33.459C62.5941 32.3991 63.4974 31.6042 64.6055 31.0742C64.0273 28.4245 63.0879 25.9193 61.7871 23.5586C60.5345 21.1979 58.9928 19.0781 57.1621 17.1992C55.3314 15.3203 53.2598 13.7305 50.9473 12.4297C48.6348 11.0807 46.1536 10.0931 43.5039 9.4668V10.9121C43.5039 11.4902 43.2871 11.9961 42.8535 12.4297C42.4199 12.8633 41.9141 13.0801 41.3359 13.0801H32.6641C32.0859 13.0801 31.5801 12.8633 31.1465 12.4297C30.7129 11.9961 30.4961 11.4902 30.4961 10.9121V9.4668C27.8464 10.0931 25.3652 11.0807 23.0527 12.4297C20.7402 13.7305 18.6686 15.3324 16.8379 17.2354C15.0072 19.1383 13.4414 21.2702 12.1406 23.6309C10.888 25.9915 9.97266 28.4967 9.39453 31.1465C10.4544 31.6764 11.3216 32.4714 11.9961 33.5312C12.6706 34.5911 13.0078 35.7474 13.0078 37C13.0078 38.7826 12.3695 40.3122 11.0928 41.5889C9.81608 42.8656 8.28646 43.5039 6.50391 43.5039C4.72135 43.5039 3.19173 42.8656 1.91504 41.5889C0.638346 40.3122 0 38.7826 0 37C0 35.4583 0.481771 34.0853 1.44531 32.8809C2.40885 31.6764 3.63737 30.9297 5.13086 30.6406C5.56445 28.2318 6.26302 25.9674 7.22656 23.8477C8.1901 21.6797 9.34635 19.6683 10.6953 17.8135C12.0443 15.9587 13.5618 14.2604 15.248 12.7188C16.9824 11.1771 18.8132 9.82812 20.7402 8.67188H12.6465C12.2129 9.97266 11.43 11.0326 10.2979 11.8516C9.16569 12.6706 7.90104 13.0801 6.50391 13.0801C4.72135 13.0801 3.19173 12.4417 1.91504 11.165C0.638346 9.88834 0 8.33463 0 6.50391C0 4.72135 0.638346 3.19173 1.91504 1.91504C3.19173 0.638344 4.72135 0 6.50391 0C7.90104 0 9.16569 0.409508 10.2979 1.22852C11.43 2.04752 12.2129 3.08334 12.6465 4.33594H30.4961V2.16797C30.4961 1.58984 30.7129 1.08398 31.1465 0.650391C31.5801 0.216797 32.0859 0 32.6641 0H41.3359ZM6.50391 34.832C5.92578 34.832 5.41992 35.0488 4.98633 35.4824C4.55273 35.916 4.33594 36.4219 4.33594 37C4.33594 37.5781 4.55273 38.084 4.98633 38.5176C5.41992 38.9512 5.92578 39.168 6.50391 39.168C7.08203 39.168 7.58789 38.9512 8.02148 38.5176C8.45508 38.084 8.67188 37.5781 8.67188 37C8.67188 36.4219 8.45508 35.916 8.02148 35.4824C7.58789 35.0488 7.08203 34.832 6.50391 34.832ZM67.3516 34.832C66.7734 34.832 66.2676 35.0488 65.834 35.4824C65.4004 35.916 65.1836 36.4219 65.1836 37C65.1836 37.5781 65.4004 38.084 65.834 38.5176C66.2676 38.9512 66.7734 39.168 67.3516 39.168C67.9297 39.168 68.4355 38.9512 68.8691 38.5176C69.3027 38.084 69.5195 37.5781 69.5195 37C69.5195 36.4219 69.3027 35.916 68.8691 35.4824C68.4355 35.0488 67.9297 34.832 67.3516 34.832ZM67.4961 4.33594C66.918 4.33594 66.4121 4.55273 65.9785 4.98633C65.5449 5.41992 65.3281 5.92578 65.3281 6.50391C65.3281 7.13021 65.5449 7.64811 65.9785 8.05762C66.4121 8.46712 66.918 8.67188 67.4961 8.67188C68.0742 8.67188 68.5801 8.46712 69.0137 8.05762C69.4473 7.64811 69.6641 7.13021 69.6641 6.50391C69.6641 5.92578 69.4473 5.41992 69.0137 4.98633C68.5801 4.55273 68.0742 4.33594 67.4961 4.33594ZM6.50391 4.33594C5.92578 4.33594 5.41992 4.55273 4.98633 4.98633C4.55273 5.41992 4.33594 5.92578 4.33594 6.50391C4.33594 7.13021 4.55273 7.64811 4.98633 8.05762C5.41992 8.46712 5.92578 8.67188 6.50391 8.67188C7.08203 8.67188 7.58789 8.46712 8.02148 8.05762C8.45508 7.64811 8.67188 7.13021 8.67188 6.50391C8.67188 5.92578 8.45508 5.41992 8.02148 4.98633C7.58789 4.55273 7.08203 4.33594 6.50391 4.33594ZM39.168 4.33594H34.832V8.67188H39.168V4.33594Z" fill="#FF9400"/>
</svg>
