<svg width="32" height="48" viewBox="0 0 32 48" fill="none" xmlns="http://www.w3.org/2000/svg">
<g clip-path="url(#clip0_49_1261)">
<path d="M7.92253 47.7997C12.2926 47.7997 15.8392 44.253 15.8392 39.883V31.9663H7.92253C3.55253 31.9663 0.00585938 35.513 0.00585938 39.883C0.00585938 44.253 3.55253 47.7997 7.92253 47.7997Z" fill="#0EC878"/>
<path d="M0.00585938 24.0499C0.00585938 19.6799 3.55253 16.1333 7.92253 16.1333H15.8392V31.9666H7.92253C3.55253 31.9666 0.00585938 28.4199 0.00585938 24.0499Z" fill="#974FFF"/>
<path d="M0.00585938 8.21647C0.00585938 3.84647 3.55253 0.299805 7.92253 0.299805H15.8392V16.1331H7.92253C3.55253 16.1331 0.00585938 12.5865 0.00585938 8.21647Z" fill="#F0441C"/>
<path d="M15.8398 0.299805H23.7564C28.1264 0.299805 31.6731 3.84647 31.6731 8.21647C31.6731 12.5865 28.1264 16.1331 23.7564 16.1331H15.8398V0.299805Z" fill="#FF6657"/>
<path d="M31.6731 24.0499C31.6731 28.4199 28.1264 31.9666 23.7564 31.9666C19.3865 31.9666 15.8398 28.4199 15.8398 24.0499C15.8398 19.6799 19.3865 16.1333 23.7564 16.1333C28.1264 16.1333 31.6731 19.6799 31.6731 24.0499Z" fill="#18B4FE"/>
</g>
<defs>
<clipPath id="clip0_49_1261">
<rect width="31.9898" height="47.5" fill="white" transform="translate(0.00585938 0.299805)"/>
</clipPath>
</defs>
</svg>
