<svg width="44" height="44" viewBox="0 0 44 44" fill="none" xmlns="http://www.w3.org/2000/svg">
<path d="M22.0143 -0.00031662C23.7617 -0.00031662 25.4876 0.207363 27.1921 0.62273C28.8965 1.03809 30.5365 1.64682 32.112 2.4489L32.4987 2.66375L32.1549 2.96453C31.6966 3.30828 31.2956 3.70932 30.9518 4.16765C30.6081 4.62598 30.3359 5.11296 30.1354 5.62859L30.0065 5.92937L29.7057 5.80046C27.7578 4.85515 25.7383 4.29656 23.6471 4.12468C21.556 3.95281 19.5221 4.11752 17.5456 4.61882C15.569 5.12012 13.707 5.95802 11.9596 7.1325C10.2122 8.27833 8.70833 9.72494 7.44792 11.4723C6.15885 13.2484 5.24219 15.139 4.69792 17.1442C4.125 19.1781 3.91016 21.2119 4.05339 23.2458C4.19661 25.2796 4.68359 27.2562 5.51432 29.1755C6.31641 31.1234 7.47656 32.8708 8.99479 34.4177C10.4844 35.9932 12.1745 37.2393 14.0651 38.1559C15.9271 39.0726 17.875 39.6527 19.9089 39.8962C21.9427 40.1397 23.9766 40.0322 26.0104 39.5739C28.0729 39.1156 30.0065 38.2848 31.8112 37.0817C33.6445 35.9072 35.1771 34.4749 36.4089 32.7848C37.6693 31.0947 38.6003 29.2757 39.2018 27.3278C39.8034 25.3799 40.0612 23.3604 39.9753 21.2692C39.8893 19.1781 39.431 17.1299 38.6003 15.1247L38.4714 14.8239L38.7721 14.738C39.3164 14.5374 39.8177 14.2725 40.276 13.943C40.7344 13.6136 41.1641 13.2341 41.5651 12.8044L41.8229 12.4606L42.0378 12.8903V12.8473C43.0404 15.0817 43.6562 17.3734 43.8854 19.7223C44.1432 22.0999 44.0215 24.4203 43.5202 26.6833C43.0189 28.9463 42.1667 31.1091 40.9635 33.1716C39.7891 35.2054 38.2708 37.0244 36.4089 38.6286C34.5755 40.2328 32.556 41.4788 30.3503 42.3669C28.1445 43.2549 25.8887 43.7777 23.5827 43.9352C21.2767 44.0928 18.9635 43.8994 16.6432 43.3551C14.3516 42.7822 12.1745 41.8369 10.112 40.5192C8.07812 39.2015 6.31641 37.6117 4.82682 35.7497C3.36589 33.8877 2.22721 31.8682 1.41081 29.6911C0.594401 27.514 0.128906 25.2367 0.0143229 22.8591C-0.0716146 20.5101 0.229167 18.1611 0.916667 15.8122C1.60417 13.4632 2.63542 11.3148 4.01042 9.36687C5.35677 7.4476 6.96094 5.7933 8.82292 4.40398C10.6849 3.01466 12.7331 1.93328 14.9674 1.15984C17.2305 0.386402 19.5794 -0.00031662 22.0143 -0.00031662ZM22.0143 11.988C23.3893 11.988 24.6927 12.2458 25.9245 12.7614C27.1276 13.3057 28.1875 14.029 29.1042 14.9313C30.0208 15.8337 30.737 16.8864 31.2526 18.0895C31.7682 19.3213 32.026 20.6247 32.026 21.9997C32.026 23.4033 31.7682 24.7067 31.2526 25.9098C30.737 27.1416 30.0208 28.2087 29.1042 29.111C28.1875 30.0134 27.1276 30.7223 25.9245 31.238C24.6927 31.7822 23.3893 32.0544 22.0143 32.0544C20.6393 32.0544 19.3359 31.7822 18.1042 31.238C16.901 30.7223 15.8411 30.0134 14.9245 29.111C14.0078 28.2087 13.2917 27.1416 12.776 25.9098C12.2604 24.7067 12.0026 23.4033 12.0026 21.9997C12.0026 20.6247 12.2604 19.3213 12.776 18.0895C13.2917 16.8864 14.0078 15.8337 14.9245 14.9313C15.8411 14.029 16.901 13.3057 18.1042 12.7614C19.3359 12.2458 20.6393 11.988 22.0143 11.988ZM36.4089 3.73796C37.6693 3.73796 38.7435 4.18197 39.6315 5.07C40.5195 5.95802 40.9635 7.03223 40.9635 8.29265C40.9635 9.55307 40.5195 10.6344 39.6315 11.5368C38.7435 12.4391 37.6693 12.8903 36.4089 12.8903C35.1484 12.8903 34.0742 12.4391 33.1862 11.5368C32.2982 10.6344 31.8542 9.55307 31.8542 8.29265C31.8542 7.03223 32.2982 5.95802 33.1862 5.07C34.0742 4.18197 35.1484 3.73796 36.4089 3.73796Z" fill="white"/>
</svg>
