<svg width="44" height="44" viewBox="0 0 44 44" fill="none" xmlns="http://www.w3.org/2000/svg">
<path d="M22 0C23.4609 0 24.8932 0.143229 26.2969 0.429688C27.7005 0.716146 29.054 1.13151 30.3574 1.67578C31.6608 2.22005 32.9141 2.89323 34.1172 3.69531C35.2917 4.46875 36.3945 5.37109 37.4258 6.40234C38.457 7.40495 39.388 8.50781 40.2188 9.71094C41.0208 10.8854 41.7012 12.1315 42.2598 13.4492C42.8184 14.7669 43.2409 16.1276 43.5273 17.5312C43.8424 18.9349 44 20.3529 44 21.7852C44 24.8216 43.4414 27.6862 42.3242 30.3789C41.1784 33.0716 39.6172 35.4206 37.6406 37.4258C35.6641 39.431 33.3438 41.0208 30.6797 42.1953C28.0156 43.3698 25.1654 43.9714 22.1289 44H21.957C18.9779 44 16.1706 43.4128 13.5352 42.2383C10.8997 41.0924 8.57943 39.5241 6.57422 37.5332C4.56901 35.5423 2.97917 33.2148 1.80469 30.5508C0.630208 27.9154 0.0286458 25.1081 0 22.1289C0 20.668 0.128906 19.2357 0.386719 17.832C0.673177 16.4284 1.08138 15.0677 1.61133 13.75C2.14128 12.4323 2.80729 11.1719 3.60938 9.96875C4.41146 8.76562 5.3138 7.66276 6.31641 6.66016C7.31901 5.62891 8.40755 4.71224 9.58203 3.91016C10.7565 3.10807 11.9811 2.42773 13.2559 1.86914C14.5306 1.31055 15.8555 0.873698 17.2305 0.558594C18.6055 0.24349 20.0091 0.0572917 21.4414 0H22ZM22 1.16016C20.5964 1.16016 19.2214 1.30339 17.875 1.58984C16.5286 1.8763 15.2253 2.28451 13.9648 2.81445C12.7044 3.3444 11.5013 3.99609 10.3555 4.76953C9.20964 5.57161 8.14974 6.47396 7.17578 7.47656C6.20182 8.42188 5.34245 9.46745 4.59766 10.6133C3.85286 11.7591 3.22266 12.9479 2.70703 14.1797C2.19141 15.4115 1.80469 16.7005 1.54688 18.0469C1.28906 19.3932 1.16016 20.7396 1.16016 22.0859C1.1888 24.9219 1.76172 27.6003 2.87891 30.1211C3.99609 32.6133 5.5 34.8047 7.39062 36.6953C9.28125 38.5859 11.4727 40.0755 13.9648 41.1641C16.4857 42.2812 19.1354 42.8398 21.9141 42.8398H22.0859C24.9792 42.8112 27.6862 42.2383 30.207 41.1211C32.7279 40.0039 34.9264 38.4928 36.8027 36.5879C38.679 34.6829 40.1615 32.4701 41.25 29.9492C42.3385 27.3997 42.8685 24.6784 42.8398 21.7852C42.8398 20.4102 42.6966 19.0638 42.4102 17.7461C42.1237 16.4284 41.7155 15.1465 41.1855 13.9004C40.6556 12.6543 40.0039 11.4727 39.2305 10.3555C38.4857 9.23828 37.612 8.19271 36.6094 7.21875C35.6641 6.24479 34.6185 5.38542 33.4727 4.64062C32.3555 3.86719 31.1738 3.22266 29.9277 2.70703C28.6816 2.19141 27.3997 1.80469 26.082 1.54688C24.7357 1.28906 23.375 1.16016 22 1.16016ZM8.07812 15.5977V16.7148H6.40234V27.2852H8.07812V28.4453H4.94141V15.5977H8.07812ZM39.0586 15.5547V28.4453H35.9219V27.2852H37.5977V16.7148H35.9219V15.5547H39.0586ZM25.2656 18.4766V23.0312C25.2656 24.0052 25.0508 24.6784 24.6211 25.0508C24.1914 25.4232 23.6328 25.6094 22.9453 25.6094C22.7734 25.6094 22.5944 25.5951 22.4082 25.5664C22.222 25.5378 22.043 25.4948 21.8711 25.4375L22.043 24.4062C22.1576 24.4349 22.2865 24.4635 22.4297 24.4922C22.5729 24.5208 22.7018 24.5352 22.8164 24.5352C23.1888 24.5352 23.4753 24.4277 23.6758 24.2129C23.8763 23.998 23.9766 23.5898 23.9766 22.9883V18.4766H25.2656ZM33.4297 18.3906C33.7161 18.362 34.0098 18.3763 34.3105 18.4336C34.6113 18.4909 34.8906 18.5768 35.1484 18.6914L34.8906 19.6797C34.6615 19.5938 34.4323 19.5293 34.2031 19.4863C33.974 19.4434 33.7448 19.4219 33.5156 19.4219C32.7995 19.4219 32.2122 19.6439 31.7539 20.0879C31.2956 20.5319 31.0664 21.1693 31.0664 22C31.0664 22.7734 31.2812 23.3893 31.7109 23.8477C32.1406 24.306 32.7422 24.5352 33.5156 24.5352C33.7448 24.5352 33.974 24.5137 34.2031 24.4707C34.4323 24.4277 34.6615 24.3633 34.8906 24.2773L35.0625 25.2656C34.776 25.3802 34.4824 25.4661 34.1816 25.5234C33.8809 25.5807 33.5729 25.5951 33.2578 25.5664C32.1693 25.5664 31.3027 25.2513 30.6582 24.6211C30.0137 23.9909 29.6914 23.1458 29.6914 22.0859C29.6628 21.5703 29.7415 21.0762 29.9277 20.6035C30.1139 20.1309 30.3789 19.7227 30.7227 19.3789C31.0951 19.0352 31.5176 18.7773 31.9902 18.6055C32.4629 18.4336 32.9427 18.362 33.4297 18.3906ZM12.2891 18.3477C13.2917 18.3477 14.0866 18.6914 14.6738 19.3789C15.2611 20.0664 15.5547 20.8971 15.5547 21.8711C15.5547 23.0456 15.2396 23.9551 14.6094 24.5996C13.9792 25.2441 13.1771 25.5664 12.2031 25.5664C11.2292 25.5664 10.4486 25.2298 9.86133 24.5566C9.27409 23.8835 8.98047 23.0312 8.98047 22C8.98047 20.9401 9.28841 20.0664 9.9043 19.3789C10.5202 18.6914 11.3151 18.3477 12.2891 18.3477ZM20.4961 18.8633C20.7253 19.0065 20.9043 19.1927 21.0332 19.4219C21.1621 19.651 21.2266 19.9089 21.2266 20.1953C21.1979 20.5104 21.0977 20.7969 20.9258 21.0547C20.7539 21.3125 20.5247 21.4987 20.2383 21.6133L20.0664 21.6992C20.4674 21.7852 20.804 21.9857 21.0762 22.3008C21.3483 22.6159 21.4844 22.9883 21.4844 23.418C21.4844 23.7044 21.4271 23.9694 21.3125 24.2129C21.1979 24.4564 21.026 24.6784 20.7969 24.8789C20.5391 25.0794 20.2025 25.237 19.7871 25.3516C19.3717 25.4661 18.849 25.5234 18.2188 25.5234C17.9609 25.5234 17.696 25.5163 17.4238 25.502C17.1517 25.4876 16.8867 25.4661 16.6289 25.4375V18.5625C16.944 18.5339 17.252 18.5052 17.5527 18.4766C17.8535 18.4479 18.1615 18.4336 18.4766 18.4336C18.8203 18.4049 19.1641 18.4264 19.5078 18.498C19.8516 18.5697 20.181 18.6914 20.4961 18.8633ZM18.5195 22.3008H17.918V24.5352C18.0039 24.5638 18.1042 24.5781 18.2188 24.5781C18.3333 24.5781 18.4479 24.5781 18.5625 24.5781C18.9635 24.5781 19.3216 24.4922 19.6367 24.3203C19.9518 24.1484 20.1094 23.8477 20.1094 23.418C20.1094 23.0169 19.959 22.7305 19.6582 22.5586C19.3574 22.3867 18.9779 22.3008 18.5195 22.3008ZM12.2891 19.3789C11.6302 19.3789 11.1361 19.6367 10.8066 20.1523C10.4772 20.668 10.3125 21.2839 10.3125 22C10.3125 22.6875 10.4844 23.2819 10.8281 23.7832C11.1719 24.2845 11.6589 24.5352 12.2891 24.5352C12.8906 24.5352 13.3561 24.2845 13.6855 23.7832C14.015 23.2819 14.1797 22.6589 14.1797 21.9141C14.1797 21.2552 14.0221 20.668 13.707 20.1523C13.3919 19.6367 12.9193 19.3789 12.2891 19.3789ZM28.875 22.2578V23.1602H26.2539V22.2578H28.875ZM18.6055 19.3789C18.4909 19.3789 18.3763 19.3789 18.2617 19.3789C18.1471 19.3789 18.0182 19.3932 17.875 19.4219L17.918 21.3555H18.5625C18.9922 21.3555 19.3288 21.2624 19.5723 21.0762C19.8158 20.89 19.9375 20.6393 19.9375 20.3242C19.9375 20.0378 19.8158 19.8086 19.5723 19.6367C19.3288 19.4648 19.0065 19.3789 18.6055 19.3789Z" fill="white"/>
</svg>
