<svg width="55" height="52" viewBox="0 0 55 52" fill="none" xmlns="http://www.w3.org/2000/svg">
<g clip-path="url(#clip0_49_1308)">
<path d="M1.39062 9.5288C1.39062 4.85083 5.18286 1.05859 9.86083 1.05859H43.9598C48.6377 1.05859 52.43 4.85083 52.43 9.5288V42.3508C52.43 47.0288 48.6377 50.821 43.9598 50.821H9.86082C5.18286 50.821 1.39062 47.0288 1.39062 42.3508V9.5288Z" fill="url(#paint0_radial_49_1308)" stroke="#31C5F0" stroke-width="2.11755"/>
<path d="M36.7601 22.3763C34.8512 22.3763 34.1989 23.3461 34.1989 24.1461C34.1989 25.0188 34.6338 25.6249 37.195 26.9583C40.9885 28.8008 42.1724 30.5704 42.1724 33.1645C42.1724 37.0433 39.2247 39.1283 35.2379 39.1283C33.1358 39.1283 31.3236 38.6918 30.2846 38.0858C30.1155 38.0131 30.0914 37.8919 30.0914 37.6979V34.1341C30.0914 33.8918 30.2122 33.8189 30.3814 33.9403C31.9036 34.9342 33.6431 35.3706 35.2379 35.3706C37.1467 35.3706 37.9441 34.5706 37.9441 33.4796C37.9441 32.6068 37.3883 31.8311 34.9479 30.5704C31.5168 28.922 30.0914 27.2492 30.0914 24.4613C30.0914 21.3338 32.5317 18.74 36.7601 18.74C38.838 18.74 40.2878 19.0552 41.0852 19.4187C41.2784 19.54 41.3267 19.7338 41.3267 19.9036V23.2247C41.3267 23.4187 41.2059 23.5399 40.9643 23.4672C39.9011 22.7885 38.3307 22.3763 36.7601 22.3763ZM15.9805 25.2613C16.5363 25.3098 16.9712 25.3098 17.9377 25.3098C20.7648 25.3098 23.4226 24.3158 23.4226 20.4612C23.4226 17.3824 21.5137 15.8308 18.3002 15.8308C17.3338 15.8308 16.4155 15.8793 15.9805 15.9035V25.2613ZM11.6798 12.3883C11.6798 12.2185 12.0181 12.0973 12.2113 12.0973C13.7577 12.0246 16.0532 11.9761 18.4452 11.9761C25.1381 11.9761 27.7476 15.6609 27.7476 20.3641C27.7476 26.5218 23.3017 29.1643 17.8411 29.1643C16.923 29.1643 16.6089 29.1158 15.9564 29.1158V38.4252C15.9564 38.6191 15.8839 38.7161 15.6665 38.7161H11.9697C11.7765 38.7161 11.6797 38.6433 11.6797 38.4252L11.6798 12.3883Z" fill="#31C5F0"/>
</g>
<defs>
<radialGradient id="paint0_radial_49_1308" cx="0" cy="0" r="1" gradientUnits="userSpaceOnUse" gradientTransform="translate(17.8391 11.6261) scale(40.3992 39.2446)">
<stop stop-color="#34364E" stop-opacity="0.98"/>
<stop offset="1" stop-color="#0C0824"/>
</radialGradient>
<clipPath id="clip0_49_1308">
<rect width="53.9976" height="51.88" fill="white" transform="translate(0.332031)"/>
</clipPath>
</defs>
</svg>
