<svg width="44" height="40" viewBox="0 0 44 40" fill="none" xmlns="http://www.w3.org/2000/svg">
<path d="M23.1172 3.92961C25.0078 2.26815 26.834 1.12231 28.5957 0.492107C30.3574 -0.1381 31.8112 -0.109455 32.957 0.578045C34.1602 1.26554 34.9336 2.58325 35.2773 4.53117C35.6211 6.47909 35.5208 8.74211 34.9766 11.3202C34.9479 11.4921 34.9121 11.6568 34.8691 11.8144C34.8262 11.9719 34.7904 12.1366 34.7617 12.3085C34.9909 12.3658 35.2272 12.4374 35.4707 12.5234C35.7142 12.6093 35.9505 12.6809 36.1797 12.7382C38.5573 13.5689 40.4551 14.5859 41.873 15.789C43.291 16.9921 44 18.2668 44 19.6132C44 20.9882 43.2409 22.3131 41.7227 23.5878C40.2044 24.8626 38.1849 25.9153 35.6641 26.746C35.5495 26.7747 35.4206 26.8105 35.2773 26.8534C35.1341 26.8964 34.9909 26.9465 34.8477 27.0038C34.9049 27.2043 34.9551 27.3977 34.998 27.5839C35.041 27.7701 35.0768 27.9635 35.1055 28.164C35.6211 30.6848 35.6927 32.8977 35.3203 34.8027C34.9479 36.7076 34.1745 38.0038 33 38.6913C31.8542 39.3502 30.4147 39.386 28.6816 38.7987C26.9486 38.2115 25.151 37.1158 23.2891 35.5116C23.0885 35.3398 22.888 35.1607 22.6875 34.9745C22.487 34.7883 22.2865 34.6093 22.0859 34.4374C21.9427 34.5807 21.7923 34.7239 21.6348 34.8671C21.4772 35.0103 21.3268 35.1392 21.1836 35.2538C19.2357 36.9439 17.3451 38.1041 15.5117 38.7343C13.6784 39.3645 12.1602 39.3502 10.957 38.6913C9.83984 38.0325 9.10221 36.8007 8.74414 34.996C8.38607 33.1913 8.4362 31.0859 8.89453 28.6796C8.95182 28.4218 9.00911 28.1568 9.06641 27.8847C9.1237 27.6126 9.18099 27.3476 9.23828 27.0898C9.03776 27.0325 8.83724 26.9752 8.63672 26.9179C8.4362 26.8606 8.23568 26.789 8.03516 26.703C5.62891 25.8723 3.68815 24.8196 2.21289 23.5448C0.73763 22.2701 0 20.9596 0 19.6132C0 18.2955 0.6875 17.0351 2.0625 15.832C3.4375 14.6288 5.29948 13.6119 7.64844 12.7812C7.90625 12.6952 8.17122 12.6093 8.44336 12.5234C8.7155 12.4374 8.99479 12.3515 9.28125 12.2655C9.19531 12.0364 9.13086 11.8001 9.08789 11.5566C9.04492 11.3131 8.99479 11.0624 8.9375 10.8046C8.45052 8.34107 8.37891 6.19263 8.72266 4.35929C9.06641 2.52596 9.8112 1.27987 10.957 0.621014C12.1315 -0.0664864 13.6497 -0.0736465 15.5117 0.599529C17.3737 1.27271 19.3073 2.48299 21.3125 4.23039C21.4271 4.34497 21.5417 4.45956 21.6562 4.57414C21.7708 4.68872 21.8997 4.80331 22.043 4.91789L22.3008 4.66008L22.8164 4.18742L23.1172 3.92961ZM33.043 27.4765L32.5273 27.5624C31.6966 27.7629 30.8229 27.9277 29.9062 28.0566C28.9896 28.1855 28.0443 28.2929 27.0703 28.3788C26.4688 29.2668 25.86 30.0976 25.2441 30.871C24.6283 31.6445 24.0052 32.3749 23.375 33.0624C23.5755 33.2343 23.7689 33.4062 23.9551 33.578C24.1413 33.7499 24.3203 33.9218 24.4922 34.0937C26.0964 35.4687 27.5859 36.4068 28.9609 36.9081C30.3359 37.4094 31.3672 37.4596 32.0547 37.0585C32.7708 36.6575 33.2578 35.6764 33.5156 34.1152C33.7734 32.554 33.6875 30.6991 33.2578 28.5507C33.2292 28.3502 33.1934 28.164 33.1504 27.9921C33.1074 27.8202 33.0716 27.6484 33.043 27.4765ZM11.043 27.5624L10.957 27.9921L10.8281 28.6366L10.7422 29.0234C10.3411 31.0859 10.2624 32.8404 10.5059 34.287C10.7493 35.7336 11.2148 36.6575 11.9023 37.0585C12.6471 37.4596 13.7572 37.3879 15.2324 36.8437C16.7077 36.2994 18.276 35.2968 19.9375 33.8359C20.0807 33.7213 20.2168 33.5995 20.3457 33.4706C20.4746 33.3417 20.6107 33.2057 20.7539 33.0624C20.1237 32.3749 19.4935 31.6445 18.8633 30.871C18.2331 30.0976 17.6029 29.2812 16.9727 28.4218C15.9128 28.3359 14.8887 28.2213 13.9004 28.078C12.9121 27.9348 11.9596 27.7629 11.043 27.5624ZM24.6641 28.5507H24.4062C24.0052 28.5793 23.6042 28.5937 23.2031 28.5937C22.8021 28.5937 22.401 28.5937 22 28.5937C21.5703 28.5937 21.1406 28.5937 20.7109 28.5937C20.2812 28.5937 19.8516 28.5793 19.4219 28.5507C19.8516 29.1236 20.2884 29.6751 20.7324 30.205C21.1764 30.7349 21.6276 31.2434 22.0859 31.7304C22.5156 31.2434 22.9453 30.7349 23.375 30.205C23.8047 29.6751 24.2344 29.1236 24.6641 28.5507ZM22 12.5663C21.3125 12.5663 20.6393 12.5735 19.9805 12.5878C19.3216 12.6021 18.6628 12.6379 18.0039 12.6952C17.6315 13.2395 17.2663 13.7981 16.9082 14.371C16.5501 14.9439 16.1992 15.5168 15.8555 16.0898L15.5977 16.5624C15.3112 17.078 15.0319 17.5937 14.7598 18.1093C14.4876 18.6249 14.237 19.1405 14.0078 19.6562C14.2656 20.2291 14.5521 20.8163 14.8672 21.4179C15.1823 22.0195 15.5117 22.6067 15.8555 23.1796C16.1992 23.7812 16.5501 24.3684 16.9082 24.9413C17.2663 25.5142 17.6315 26.0728 18.0039 26.6171C18.6628 26.6458 19.3216 26.6744 19.9805 26.703C20.6393 26.7317 21.3125 26.746 22 26.746C22.6875 26.746 23.3678 26.7317 24.041 26.703C24.7142 26.6744 25.3802 26.6314 26.0391 26.5741C26.3828 26.0299 26.7337 25.4784 27.0918 24.9198C27.4499 24.3612 27.8008 23.7812 28.1445 23.1796C28.4883 22.578 28.8177 21.9836 29.1328 21.3964C29.4479 20.8092 29.7487 20.2148 30.0352 19.6132C29.7487 19.0403 29.4479 18.4602 29.1328 17.873C28.8177 17.2857 28.4883 16.6913 28.1445 16.0898C27.8008 15.4882 27.4499 14.9081 27.0918 14.3495C26.7337 13.7909 26.3685 13.2395 25.9961 12.6952C25.3659 12.6379 24.7142 12.6021 24.041 12.5878C23.3678 12.5735 22.6875 12.5663 22 12.5663ZM12.9766 21.8476L12.7617 22.4491C12.5326 22.9934 12.3177 23.5448 12.1172 24.1034C11.9167 24.662 11.7305 25.2135 11.5586 25.7577C12.1888 25.8723 12.8405 25.9869 13.5137 26.1015C14.1868 26.2161 14.8958 26.3163 15.6406 26.4023C15.3828 26.0299 15.1393 25.6575 14.9102 25.2851C14.681 24.9127 14.4518 24.526 14.2227 24.1249C14.0221 23.7525 13.8145 23.373 13.5996 22.9862C13.3848 22.5995 13.1771 22.22 12.9766 21.8476ZM31.0664 21.8046L30.9375 21.9765C30.737 22.3489 30.5436 22.707 30.3574 23.0507C30.1712 23.3945 29.9779 23.7525 29.7773 24.1249C29.5482 24.4973 29.319 24.8697 29.0898 25.2421C28.8607 25.6145 28.6315 25.9869 28.4023 26.3593C29.1471 26.2734 29.8633 26.1731 30.5508 26.0585C31.2383 25.9439 31.8971 25.815 32.5273 25.6718C32.3268 25.0416 32.1048 24.4042 31.8613 23.7597C31.6178 23.1152 31.3529 22.4635 31.0664 21.8046ZM9.75391 14.0702L9.41016 14.1991C9.20964 14.2564 9.00911 14.3137 8.80859 14.371C8.60807 14.4283 8.42188 14.4856 8.25 14.5429C6.27344 15.259 4.7194 16.0826 3.58789 17.0136C2.45638 17.9446 1.89062 18.8111 1.89062 19.6132C1.89062 20.4439 2.49935 21.3606 3.7168 22.3632C4.93424 23.3658 6.57422 24.2252 8.63672 24.9413C8.80859 24.9986 8.98763 25.0559 9.17383 25.1132C9.36003 25.1705 9.55339 25.2278 9.75391 25.2851C10.0117 24.3684 10.3268 23.4374 10.6992 22.4921C11.0716 21.5468 11.4727 20.6015 11.9023 19.6562C11.4727 18.7109 11.0788 17.7727 10.7207 16.8417C10.3626 15.9107 10.0404 14.9869 9.75391 14.0702ZM34.2461 14.1132L34.1602 14.457C33.8737 15.2877 33.5658 16.1327 33.2363 16.9921C32.9069 17.8515 32.5273 18.7252 32.0977 19.6132C32.556 20.5872 32.9785 21.5396 33.3652 22.4706C33.752 23.4016 34.0742 24.3111 34.332 25.1991L34.5469 25.1132L35.0625 24.9413C37.2396 24.2252 38.9583 23.3658 40.2188 22.3632C41.4792 21.3606 42.1094 20.4439 42.1094 19.6132C42.1094 18.8111 41.5293 17.9374 40.3691 16.9921C39.209 16.0468 37.612 15.2304 35.5781 14.5429C35.349 14.457 35.127 14.3782 34.9121 14.3066C34.6973 14.2349 34.4753 14.1705 34.2461 14.1132ZM22 15.6601C23.0885 15.6601 24.0124 16.0468 24.7715 16.8202C25.5306 17.5937 25.9102 18.5247 25.9102 19.6132C25.9102 20.7017 25.5306 21.6256 24.7715 22.3847C24.0124 23.1438 23.0885 23.5234 22 23.5234C20.9115 23.5234 19.9876 23.1438 19.2285 22.3847C18.4694 21.6256 18.0898 20.7017 18.0898 19.6132C18.0898 18.5247 18.4694 17.5937 19.2285 16.8202C19.9876 16.0468 20.9115 15.6601 22 15.6601ZM28.4453 12.953L28.4883 13.082C28.7174 13.4257 28.9323 13.7695 29.1328 14.1132C29.3333 14.457 29.5482 14.8007 29.7773 15.1445C29.9779 15.5168 30.1855 15.8964 30.4004 16.2831C30.6152 16.6698 30.8229 17.0494 31.0234 17.4218C31.3099 16.7916 31.5677 16.1542 31.7969 15.5097C32.026 14.8652 32.2409 14.2421 32.4414 13.6405C31.8112 13.4973 31.1595 13.3684 30.4863 13.2538C29.8132 13.1392 29.1328 13.039 28.4453 12.953ZM15.5977 12.953L15.2969 12.996C14.638 13.082 14.0007 13.1751 13.3848 13.2753C12.7689 13.3756 12.1745 13.4973 11.6016 13.6405C11.7734 14.2421 11.9811 14.8652 12.2246 15.5097C12.4681 16.1542 12.7188 16.7916 12.9766 17.4218C13.1771 17.0494 13.3848 16.6698 13.5996 16.2831C13.8145 15.8964 14.0221 15.5168 14.2227 15.1445L14.5234 14.6288L14.7812 14.2421C14.8958 14.0129 15.0247 13.7909 15.168 13.5761C15.3112 13.3612 15.4544 13.1536 15.5977 12.953ZM31.9258 2.12492C31.2096 1.78117 30.1641 1.88143 28.7891 2.4257C27.4141 2.96997 25.9388 3.94393 24.3633 5.34758C24.1914 5.49081 24.0195 5.6412 23.8477 5.79875C23.6758 5.9563 23.5039 6.10669 23.332 6.24992C23.9622 6.93742 24.5924 7.66789 25.2227 8.44133C25.8529 9.21476 26.4688 10.0312 27.0703 10.8905C28.1016 11.0051 29.1113 11.1412 30.0996 11.2987C31.0879 11.4563 32.0404 11.6353 32.957 11.8359L33 11.5351L33.1289 10.9765C33.5872 8.71346 33.7018 6.78703 33.4727 5.19719C33.2435 3.60734 32.7565 2.59758 32.0117 2.16789L31.9258 2.12492ZM19.8516 5.47648C18.1615 4.01554 16.5931 3.00578 15.1465 2.44719C13.6999 1.88859 12.6185 1.82414 11.9023 2.25383C11.1862 2.65487 10.7135 3.59302 10.4844 5.06828C10.2552 6.54354 10.3555 8.34107 10.7852 10.4609C10.8138 10.69 10.8568 10.912 10.9141 11.1269C10.9714 11.3417 11.0286 11.578 11.0859 11.8359C12.0026 11.6067 12.9479 11.4205 13.9219 11.2773C14.8958 11.134 15.9128 11.0051 16.9727 10.8905C17.5742 10.0598 18.1901 9.25057 18.8203 8.46281C19.4505 7.67505 20.0807 6.93742 20.7109 6.24992C20.5964 6.16398 20.4818 6.07088 20.3672 5.97062C20.2526 5.87036 20.138 5.76294 20.0234 5.64836L19.8516 5.47648ZM22 7.62492L21.5703 8.09758C21.1979 8.49862 20.8327 8.92114 20.4746 9.36515C20.1165 9.80916 19.7656 10.2603 19.4219 10.7187C19.8516 10.7187 20.2812 10.7115 20.7109 10.6972C21.1406 10.6829 21.5703 10.6757 22 10.6757C22.4297 10.6757 22.8665 10.6829 23.3105 10.6972C23.7546 10.7115 24.1914 10.7187 24.6211 10.7187C24.1914 10.1458 23.7617 9.60148 23.332 9.08586C22.9023 8.57023 22.4583 8.08325 22 7.62492Z" fill="white"/>
</svg>
