<svg width="340" height="263" viewBox="0 0 340 263" fill="none" xmlns="http://www.w3.org/2000/svg">
<rect x="53.5" y="92" width="250" height="79" rx="10" fill="#FFF6EE"/>
<path d="M12.8843 111C10.5747 111 8.31705 111.762 6.39674 113.191C4.47643 114.619 2.97973 116.65 2.09591 119.025C1.21209 121.401 0.980843 124.014 1.43141 126.536C1.88198 129.058 2.99413 131.374 4.62722 133.192C6.26031 135.01 8.34099 136.249 10.6062 136.75C12.8713 137.252 15.2192 136.994 17.3529 136.01C19.4867 135.026 21.3104 133.36 22.5935 131.222C23.8766 129.085 24.5615 126.571 24.5615 124C24.5556 120.554 23.3234 117.251 21.1348 114.815C18.9461 112.378 15.9794 111.007 12.8843 111ZM18.4422 121.725L11.8625 128.725C11.6924 128.903 11.4673 129.002 11.2337 129C11.1196 129.002 11.0062 128.978 10.9003 128.931C10.7943 128.884 10.6977 128.814 10.6162 128.725L7.32635 125.225C7.23511 125.136 7.1609 125.028 7.10819 124.907C7.05548 124.785 7.02536 124.653 7.01963 124.519C7.01391 124.384 7.0327 124.25 7.07488 124.123C7.11706 123.997 7.18176 123.881 7.26509 123.783C7.34841 123.686 7.44864 123.608 7.55975 123.554C7.67087 123.5 7.79057 123.472 7.91166 123.471C8.03275 123.471 8.15274 123.497 8.2644 123.549C8.37607 123.602 8.47711 123.678 8.56144 123.775L11.2337 126.612L17.2071 120.275C17.3817 120.105 17.6085 120.017 17.8401 120.03C18.0716 120.042 18.2899 120.153 18.4494 120.34C18.6089 120.528 18.6972 120.776 18.6958 121.034C18.6945 121.292 18.6036 121.54 18.4422 121.725Z" fill="#3FCD78"/>
<rect x="107.5" y="112" width="166" height="13" rx="6.5" fill="#EBC8A8"/>
<rect x="107.5" y="133" width="108" height="13" rx="6.5" fill="#FEE3CB"/>
<rect x="52.5" width="250" height="79" rx="10" fill="white"/>
<path d="M11.9858 19C9.67629 19 7.41862 19.7624 5.49831 21.1909C3.578 22.6194 2.0813 24.6497 1.19748 27.0251C0.313653 29.4006 0.0824052 32.0144 0.532974 34.5362C0.983542 37.0579 2.09569 39.3743 3.72878 41.1924C5.36187 43.0105 7.44255 44.2486 9.70771 44.7502C11.9729 45.2518 14.3208 44.9944 16.4545 44.0104C18.5882 43.0265 20.412 41.3602 21.6951 39.2224C22.9782 37.0846 23.6631 34.5712 23.6631 32C23.6571 28.5542 22.4249 25.2515 20.2363 22.8149C18.0477 20.3784 15.081 19.0066 11.9858 19ZM17.5437 29.725L10.9641 36.725C10.794 36.9031 10.5688 37.0016 10.3353 37C10.2212 37.0018 10.1078 36.9785 10.0018 36.9313C9.89583 36.8841 9.79928 36.814 9.71775 36.725L6.42792 33.225C6.33667 33.1364 6.26246 33.0281 6.20975 32.9067C6.15704 32.7854 6.12692 32.6534 6.1212 32.5187C6.11547 32.3841 6.13427 32.2495 6.17645 32.1231C6.21863 31.9968 6.28332 31.8812 6.36665 31.7834C6.44997 31.6856 6.5502 31.6075 6.66132 31.5539C6.77243 31.5003 6.89213 31.4723 7.01322 31.4715C7.13432 31.4707 7.2543 31.4972 7.36596 31.5493C7.47763 31.6015 7.57867 31.6783 7.66301 31.775L10.3353 34.6125L16.3086 28.275C16.4833 28.1054 16.7101 28.0174 16.9416 28.0296C17.1731 28.0418 17.3915 28.1532 17.551 28.3404C17.7104 28.5277 17.7987 28.7763 17.7974 29.0343C17.7961 29.2924 17.7052 29.5398 17.5437 29.725Z" fill="#3FCD78"/>
<rect x="106.5" y="20" width="166" height="13" rx="6.5" fill="#FFE4D0"/>
<rect x="106.5" y="41" width="108" height="13" rx="6.5" fill="#FEDBD5"/>
<rect x="89.998" y="184.5" width="249" height="78" rx="14.5" stroke="#CE6D54" stroke-dasharray="4 4"/>
<path d="M45.2202 203C42.9107 203 40.653 203.762 38.7327 205.191C36.8124 206.619 35.3157 208.65 34.4319 211.025C33.548 213.401 33.3168 216.014 33.7673 218.536C34.2179 221.058 35.3301 223.374 36.9632 225.192C38.5962 227.01 40.6769 228.249 42.9421 228.75C45.2072 229.252 47.5551 228.994 49.6889 228.01C51.8226 227.026 53.6464 225.36 54.9295 223.222C56.2126 221.085 56.8974 218.571 56.8974 216C56.8915 212.554 55.6593 209.251 53.4707 206.815C51.2821 204.378 48.3154 203.007 45.2202 203ZM50.7781 213.725L44.1984 220.725C44.0283 220.903 43.8032 221.002 43.5697 221C43.4555 221.002 43.3422 220.978 43.2362 220.931C43.1302 220.884 43.0337 220.814 42.9521 220.725L39.6623 217.225C39.571 217.136 39.4968 217.028 39.4441 216.907C39.3914 216.785 39.3613 216.653 39.3556 216.519C39.3498 216.384 39.3686 216.25 39.4108 216.123C39.453 215.997 39.5177 215.881 39.601 215.783C39.6843 215.686 39.7846 215.608 39.8957 215.554C40.0068 215.5 40.1265 215.472 40.2476 215.471C40.3687 215.471 40.4887 215.497 40.6003 215.549C40.712 215.602 40.813 215.678 40.8974 215.775L43.5697 218.612L49.543 212.275C49.7177 212.105 49.9445 212.017 50.176 212.03C50.4075 212.042 50.6258 212.153 50.7853 212.34C50.9448 212.528 51.0331 212.776 51.0318 213.034C51.0304 213.292 50.9395 213.54 50.7781 213.725Z" fill="#2C2C2C"/>
<rect x="143.498" y="204" width="166" height="13" rx="6.5" fill="white"/>
<rect x="143.498" y="225" width="108" height="13" rx="6.5" fill="#F8F8F8"/>
</svg>
