<svg width="405" height="298" viewBox="0 0 405 298" fill="none" xmlns="http://www.w3.org/2000/svg">
<g filter="url(#filter0_i_61_453)">
<rect width="160.383" height="83.453" rx="13.6921" transform="matrix(0.99993 0.0117992 -0.013219 0.999913 29.8281 54.4258)" fill="url(#paint0_linear_61_453)" fill-opacity="0.93"/>
</g>
<path d="M54.5536 68.0401L53.4566 135.058M115.974 68.9929L114.877 136.011M85.7363 68.5238L84.6393 135.542M146.842 69.4718L145.745 136.49M69.6724 68.2746L68.5754 135.293M131.408 69.2323L130.311 136.25M100.855 68.7584L99.7581 135.777M162.276 69.7112L161.179 136.729M40.8978 122.993L176.653 125.099M41.3669 94.3284L177.122 96.4344M41.1286 108.863L176.884 110.968M41.6045 79.7944L177.359 81.9004" stroke="url(#paint1_linear_61_453)" stroke-width="0.36362"/>
<path d="M43.2942 71.9424L44.7153 74.359L46.2461 72.0062L46.5076 74.8705L47.5909 74.894L46.9577 69.5338L44.7518 72.774L42.6971 69.4417L41.818 74.7692L42.9013 74.7926L43.2942 71.9424ZM49.1941 73.8884C49.1963 73.7915 49.22 73.712 49.2651 73.6499C49.3102 73.583 49.3793 73.5336 49.4721 73.5016C49.5651 73.4649 49.6843 73.448 49.8298 73.4512C50.0091 73.4551 50.1782 73.483 50.337 73.5349C50.5007 73.5869 50.6469 73.6628 50.7755 73.7626L50.7856 73.3264C50.7384 73.2671 50.6598 73.2048 50.5498 73.1394C50.4398 73.074 50.3029 73.0177 50.1391 72.9705C49.9801 72.9234 49.794 72.8976 49.5807 72.893C49.1639 72.884 48.8394 72.9715 48.6072 73.1556C48.375 73.3397 48.2552 73.5941 48.2477 73.9189C48.2425 74.1467 48.2914 74.3417 48.3943 74.504C48.5022 74.6615 48.6449 74.7834 48.8224 74.8697C48.9998 74.9559 49.1927 75.0013 49.4012 75.0058C49.6047 75.0102 49.7995 74.9781 49.9853 74.9094C50.176 74.8407 50.3312 74.735 50.4509 74.5921C50.5754 74.4493 50.6402 74.2713 50.6451 74.058L50.5388 73.6193C50.5351 73.7792 50.4956 73.9166 50.4202 74.0313C50.3449 74.1412 50.2484 74.2264 50.1306 74.2869C50.0129 74.3426 49.8814 74.3688 49.736 74.3657C49.6342 74.3635 49.54 74.3445 49.4536 74.3087C49.3721 74.2681 49.3079 74.2134 49.261 74.1445C49.2142 74.0707 49.1919 73.9854 49.1941 73.8884ZM48.8618 72.521C48.9111 72.4881 48.9872 72.4485 49.0901 72.4023C49.193 72.356 49.3151 72.3174 49.4565 72.2865C49.5978 72.2556 49.746 72.2419 49.9011 72.2452C50.0029 72.2474 50.0948 72.2591 50.1768 72.2803C50.2587 72.3014 50.3283 72.3345 50.3854 72.3793C50.4474 72.4243 50.4922 72.4811 50.5197 72.5496C50.5474 72.6132 50.5601 72.6911 50.558 72.7832L50.508 74.957L51.4168 74.9767L51.4714 72.6065C51.4766 72.3787 51.418 72.1859 51.2955 72.028C51.1732 71.8654 51.0015 71.7404 50.7804 71.6532C50.5593 71.566 50.3058 71.5193 50.0198 71.5131C49.7096 71.5064 49.4275 71.5439 49.1734 71.6257C48.9195 71.7027 48.7042 71.7853 48.5276 71.8736L48.8618 72.521ZM53.4749 71.6751L52.5516 71.6551L52.4746 74.9995L53.398 75.0195L53.4749 71.6751ZM54.4339 72.6778L54.8813 71.8873C54.8154 71.7986 54.7272 71.7313 54.6168 71.6852C54.5111 71.6393 54.3977 71.615 54.2766 71.6124C54.1021 71.6086 53.931 71.668 53.7633 71.7904C53.5957 71.908 53.4586 72.07 53.352 72.2762C53.2455 72.4775 53.1892 72.7115 53.1831 72.9781L53.4388 73.2455C53.4425 73.0856 53.465 72.9503 53.5063 72.8396C53.5526 72.7242 53.6177 72.6359 53.7016 72.5747C53.7854 72.5135 53.8855 72.4841 54.0018 72.4866C54.0988 72.4887 54.1784 72.5074 54.2406 72.5427C54.3078 72.5733 54.3722 72.6183 54.4339 72.6778ZM55.5981 69.3933L55.4676 75.0642L56.3764 75.0839L56.5069 69.4129L55.5981 69.3933ZM57.6821 71.766L56.2107 73.1163L57.7579 75.1138L58.8775 75.138L57.3377 73.1407L58.8091 71.7904L57.6821 71.766ZM61.0246 75.2571C61.4269 75.2658 61.7728 75.1957 62.0624 75.0468C62.3569 74.8931 62.595 74.6606 62.7768 74.3494L61.961 74.0771C61.8604 74.235 61.734 74.3535 61.5819 74.4326C61.4347 74.5071 61.2568 74.542 61.0484 74.5375C60.8642 74.5335 60.7076 74.4889 60.5787 74.4037C60.4497 74.3185 60.3531 74.1976 60.2888 74.041C60.2293 73.8845 60.2022 73.6948 60.2073 73.4718C60.2175 73.2393 60.2559 73.0461 60.3225 72.8924C60.394 72.7339 60.4913 72.6172 60.6142 72.5423C60.7421 72.4626 60.8982 72.4248 61.0824 72.4287C61.2327 72.432 61.3627 72.4688 61.4727 72.539C61.5826 72.6093 61.6653 72.7032 61.7208 72.8208C61.7811 72.9385 61.8094 73.0797 61.8056 73.2445C61.8048 73.2785 61.7941 73.3219 61.7735 73.3748C61.7579 73.4229 61.74 73.4613 61.7199 73.49L61.9821 73.1611L59.8082 73.1141L59.7948 73.6957L62.7903 73.7605C62.7958 73.7315 62.7991 73.6928 62.8003 73.6443C62.8062 73.5959 62.8097 73.5499 62.8107 73.5063C62.819 73.1476 62.7581 72.8408 62.6282 72.5858C62.4984 72.326 62.3041 72.1278 62.0454 71.9913C61.7916 71.85 61.4805 71.7754 61.1122 71.7674C60.7438 71.7595 60.4222 71.8253 60.1474 71.9648C59.8727 72.0995 59.6573 72.2961 59.501 72.5546C59.3496 72.8083 59.2699 73.1145 59.2616 73.4732C59.2535 73.8271 59.3191 74.1364 59.4585 74.4013C59.6028 74.6614 59.809 74.8671 60.0771 75.0184C60.3452 75.1697 60.6611 75.2493 61.0246 75.2571ZM63.3112 71.8877L63.293 72.6802L65.3579 72.7248L65.3761 71.9324L63.3112 71.8877ZM63.9124 70.7369L63.8087 75.2446L64.7175 75.2642L64.8212 70.7565L63.9124 70.7369ZM66.0453 70.652C66.0419 70.8023 66.0947 70.9295 66.2038 71.0337C66.313 71.1379 66.4451 71.1917 66.6002 71.195C66.7553 71.1984 66.8874 71.1503 66.9964 71.0509C67.1102 70.9515 67.1688 70.8267 67.1723 70.6764C67.1758 70.5213 67.123 70.3941 67.0137 70.2947C66.9095 70.1906 66.7798 70.1369 66.6246 70.1336C66.4695 70.1302 66.3351 70.1782 66.2212 70.2776C66.1075 70.3721 66.0489 70.4969 66.0453 70.652ZM66.1173 71.9484L66.0404 75.2928L66.9565 75.3126L67.0334 71.9682L66.1173 71.9484ZM70.3441 73.3491L70.2973 75.3848L71.2715 75.4059L71.3207 73.2684C71.33 72.8661 71.2402 72.5514 71.0515 72.3242C70.8628 72.0922 70.5698 71.9719 70.1723 71.9633C69.9348 71.9582 69.73 72.0047 69.5581 72.1028C69.391 72.1962 69.2544 72.3363 69.1483 72.5231L69.16 72.0142L68.2148 71.9937L68.1379 75.3382L69.0831 75.3586L69.1299 73.3229C69.1331 73.1823 69.1626 73.0617 69.2182 72.9611C69.2739 72.8604 69.3532 72.7845 69.4563 72.7334C69.5594 72.6775 69.6764 72.6509 69.8073 72.6537C70.0011 72.6579 70.1404 72.7191 70.2249 72.8373C70.3095 72.9556 70.3492 73.1261 70.3441 73.3491ZM72.2157 75.6591C72.2284 75.9503 72.3 76.2089 72.4306 76.4348C72.566 76.6656 72.7631 76.8445 73.0221 76.9713C73.2809 77.103 73.6042 77.173 73.992 77.1814C74.3119 77.1883 74.609 77.1317 74.8834 77.0115C75.1576 76.8962 75.3777 76.707 75.5438 76.4439C75.7148 76.1809 75.805 75.8434 75.8145 75.4314L75.8897 72.1597L74.9809 72.14L74.9056 75.4117C74.9004 75.6395 74.8524 75.8276 74.7617 75.976C74.6758 76.1245 74.5618 76.2335 74.4195 76.3032C74.2822 76.373 74.1359 76.4062 73.9808 76.4028C73.8111 76.3992 73.664 76.3669 73.5393 76.306C73.4146 76.2451 73.3171 76.1606 73.2469 76.0524C73.1765 75.949 73.1406 75.8246 73.1391 75.679L72.2157 75.6591ZM72.1948 73.7237C72.1863 74.0921 72.2542 74.4063 72.3986 74.6665C72.543 74.9218 72.7374 75.1175 72.9816 75.2537C73.2257 75.39 73.486 75.461 73.7623 75.467C74.0434 75.4731 74.2921 75.413 74.5084 75.2867C74.7296 75.1557 74.9038 74.9631 75.0309 74.7088C75.1628 74.4547 75.2329 74.1483 75.2412 73.7896C75.2495 73.4261 75.1936 73.1169 75.0734 72.8621C74.9581 72.6026 74.793 72.4027 74.578 72.2622C74.3678 72.1219 74.1222 72.0487 73.8411 72.0426C73.5648 72.0366 73.3015 72.0964 73.0513 72.2219C72.8011 72.3475 72.5979 72.5371 72.4417 72.7907C72.2857 73.0395 72.2033 73.3505 72.1948 73.7237ZM73.169 73.7448C73.1737 73.5412 73.2188 73.3725 73.3043 73.2385C73.39 73.0997 73.5039 72.9955 73.6462 72.9258C73.7884 72.8562 73.9395 72.8231 74.0994 72.8265C74.2061 72.8288 74.3098 72.8529 74.4106 72.8987C74.5115 72.9397 74.6022 72.9999 74.6829 73.0792C74.7683 73.1586 74.834 73.257 74.8797 73.3744C74.9255 73.4918 74.9467 73.628 74.9431 73.7831C74.9384 73.9867 74.8908 74.1578 74.8003 74.2965C74.7148 74.4304 74.6034 74.5323 74.466 74.6021C74.3335 74.6671 74.197 74.6981 74.0565 74.695C73.8965 74.6916 73.7471 74.652 73.6082 74.5762C73.4693 74.5005 73.3602 74.3939 73.2809 74.2564C73.2018 74.114 73.1645 73.9435 73.169 73.7448ZM79.4635 74.4264L78.9919 75.0054C79.1152 75.1293 79.2531 75.2463 79.4058 75.3562C79.5634 75.4615 79.7384 75.5477 79.9308 75.6149C80.1281 75.6822 80.3455 75.7184 80.583 75.7236C80.966 75.7319 81.2686 75.6463 81.491 75.4668C81.7134 75.2825 81.8285 75.0231 81.8362 74.6887C81.8409 74.4851 81.7986 74.3193 81.7094 74.1913C81.6202 74.0633 81.499 73.9564 81.3458 73.8706C81.1976 73.7801 81.0346 73.699 80.8568 73.6273C80.7128 73.5611 80.5832 73.505 80.4678 73.4588C80.3574 73.4128 80.2712 73.3625 80.2094 73.3078C80.1526 73.2484 80.125 73.1823 80.1267 73.1096C80.1286 73.0272 80.1591 72.9672 80.2181 72.9297C80.2822 72.8875 80.3675 72.8675 80.4741 72.8698C80.6341 72.8732 80.7955 72.9179 80.9584 73.0039C81.1262 73.09 81.2691 73.1998 81.3873 73.3332L81.8151 72.7606C81.7109 72.6516 81.5894 72.5569 81.4507 72.4763C81.312 72.3908 81.1608 72.3221 80.9971 72.2701C80.8334 72.218 80.6571 72.19 80.468 72.1859C80.2451 72.1811 80.0406 72.213 79.8548 72.2817C79.6739 72.3457 79.5285 72.4468 79.4186 72.5851C79.3089 72.7185 79.2517 72.8846 79.2471 73.0833C79.2423 73.2917 79.2844 73.4648 79.3734 73.6025C79.4673 73.7355 79.586 73.8447 79.7296 73.9303C79.8732 74.0109 80.0219 74.0821 80.1757 74.1436C80.3392 74.2005 80.4738 74.2543 80.5793 74.3051C80.6848 74.3558 80.7635 74.4133 80.8154 74.4775C80.8722 74.5369 80.8996 74.6102 80.8976 74.6975C80.8954 74.7944 80.8597 74.8712 80.7905 74.9279C80.7214 74.9798 80.6238 75.0043 80.4978 75.0016C80.4009 74.9995 80.2971 74.9779 80.1865 74.9367C80.0808 74.8956 79.9682 74.835 79.8488 74.7548C79.7295 74.6698 79.6011 74.5603 79.4635 74.4264ZM82.2946 72.2981L82.2764 73.0906L84.3412 73.1352L84.3595 72.3428L82.2946 72.2981ZM82.8957 71.1473L82.792 75.655L83.7009 75.6746L83.8046 71.1669L82.8957 71.1473ZM85.9659 72.3775L85.0425 72.3575L84.9656 75.7019L85.889 75.7219L85.9659 72.3775ZM86.9249 73.3802L87.3722 72.5897C87.3064 72.501 87.2182 72.4336 87.1077 72.3876C87.0021 72.3417 86.8887 72.3174 86.7675 72.3148C86.593 72.311 86.4219 72.3704 86.2542 72.4928C86.0866 72.6104 85.9495 72.7724 85.843 72.9786C85.7365 73.1799 85.6802 73.4139 85.6741 73.6805L85.9298 73.9479C85.9335 73.788 85.956 73.6527 85.9973 73.542C86.0436 73.4266 86.1087 73.3383 86.1925 73.2771C86.2764 73.2159 86.3765 73.1865 86.4928 73.189C86.5898 73.1911 86.6693 73.2098 86.7316 73.2451C86.7988 73.2757 86.8632 73.3207 86.9249 73.3802ZM88.6732 74.7419C88.6754 74.645 88.6991 74.5655 88.7441 74.5034C88.7893 74.4365 88.8584 74.387 88.9512 74.3551C89.0442 74.3183 89.1634 74.3015 89.3088 74.3046C89.4882 74.3085 89.6573 74.3364 89.8161 74.3884C89.9798 74.4404 90.126 74.5163 90.2546 74.6161L90.2647 74.1798C90.2175 74.1206 90.1389 74.0583 90.0289 73.9929C89.9189 73.9275 89.7819 73.8712 89.6182 73.824C89.4592 73.7769 89.2731 73.751 89.0598 73.7464C88.643 73.7374 88.3184 73.825 88.0863 74.0091C87.8541 74.1932 87.7343 74.4476 87.7268 74.7724C87.7216 75.0002 87.7704 75.1952 87.8734 75.3575C87.9813 75.515 88.124 75.6369 88.3014 75.7231C88.4789 75.8094 88.6718 75.8548 88.8803 75.8593C89.0838 75.8637 89.2786 75.8315 89.4644 75.7628C89.6551 75.6942 89.8103 75.5885 89.93 75.4456C90.0545 75.3028 90.1192 75.1247 90.1242 74.9115L90.0179 74.4727C90.0142 74.6327 89.9746 74.77 89.8993 74.8848C89.824 74.9947 89.7275 75.0799 89.6097 75.1404C89.492 75.196 89.3605 75.2223 89.2151 75.2192C89.1133 75.217 89.0191 75.1979 88.9327 75.1621C88.8512 75.1216 88.787 75.0668 88.74 74.9979C88.6932 74.9242 88.671 74.8388 88.6732 74.7419ZM88.3409 73.3745C88.3902 73.3416 88.4663 73.302 88.5692 73.2557C88.6721 73.2095 88.7942 73.1709 88.9356 73.14C89.0769 73.1091 89.2251 73.0953 89.3802 73.0987C89.482 73.1009 89.5739 73.1126 89.6559 73.1337C89.7378 73.1549 89.8074 73.1879 89.8645 73.2328C89.9265 73.2778 89.9713 73.3345 89.9988 73.403C90.0265 73.4667 90.0392 73.5445 90.0371 73.6366L89.9871 75.8105L90.8959 75.8301L90.9505 73.46C90.9557 73.2322 90.8971 73.0393 90.7746 72.8815C90.6523 72.7188 90.4806 72.5939 90.2595 72.5067C90.0384 72.4195 89.7849 72.3727 89.4989 72.3666C89.1887 72.3599 88.9066 72.3974 88.6525 72.4792C88.3986 72.5562 88.1833 72.6388 88.0067 72.7271L88.3409 73.3745ZM91.6017 72.4993L91.5834 73.2918L93.6483 73.3364L93.6666 72.544L91.6017 72.4993ZM92.2028 71.3485L92.0991 75.8562L93.0079 75.8758L93.1117 71.3681L92.2028 71.3485ZM95.8487 76.01C96.251 76.0187 96.597 75.9485 96.8865 75.7996C97.181 75.646 97.4192 75.4135 97.6009 75.1022L96.7852 74.83C96.6845 74.9878 96.5582 75.1063 96.406 75.1855C96.2588 75.2599 96.081 75.2948 95.8726 75.2903C95.6884 75.2864 95.5318 75.2417 95.4028 75.1565C95.2738 75.0713 95.1772 74.9504 95.1129 74.7938C95.0535 74.6374 95.0263 74.4476 95.0314 74.2247C95.0416 73.9921 95.08 73.799 95.1466 73.6452C95.2181 73.4868 95.3154 73.3701 95.4384 73.2951C95.5663 73.2154 95.7223 73.1776 95.9065 73.1816C96.0568 73.1848 96.1869 73.2216 96.2968 73.2919C96.4067 73.3621 96.4894 73.456 96.5449 73.5736C96.6053 73.6913 96.6335 73.8326 96.6297 73.9974C96.629 74.0313 96.6183 74.0747 96.5976 74.1276C96.582 74.1758 96.5641 74.2142 96.5441 74.2428L96.8062 73.9139L94.6323 73.8669L94.6189 74.4485L97.6144 74.5133C97.62 74.4843 97.6233 74.4456 97.6244 74.3971C97.6304 74.3488 97.6338 74.3028 97.6348 74.2591C97.6431 73.9005 97.5823 73.5936 97.4523 73.3387C97.3225 73.0788 97.1283 72.8807 96.8695 72.7441C96.6158 72.6029 96.3047 72.5282 95.9363 72.5203C95.5679 72.5123 95.2463 72.5781 94.9715 72.7176C94.6969 72.8523 94.4814 73.0489 94.3251 73.3074C94.1738 73.5612 94.094 73.8674 94.0857 74.2261C94.0776 74.5799 94.1432 74.8892 94.2826 75.1541C94.427 75.4143 94.6332 75.62 94.9013 75.7712C95.1694 75.9225 95.4852 76.0021 95.8487 76.01ZM98.3221 76.2235C98.3348 76.5147 98.4064 76.7733 98.537 76.9992C98.6723 77.23 98.8695 77.4088 99.1284 77.5357C99.3873 77.6674 99.7106 77.7374 100.098 77.7458C100.418 77.7527 100.715 77.6961 100.99 77.5759C101.264 77.4606 101.484 77.2714 101.65 77.0083C101.821 76.7452 101.911 76.4077 101.921 75.9957L101.996 72.724L101.087 72.7044L101.012 75.9761C101.007 76.2039 100.959 76.392 100.868 76.5404C100.782 76.6888 100.668 76.7979 100.526 76.8676C100.389 76.9373 100.242 76.9706 100.087 76.9672C99.9175 76.9635 99.7704 76.9313 99.6457 76.8704C99.521 76.8095 99.4235 76.7249 99.3533 76.6167C99.2829 76.5134 99.247 76.3889 99.2455 76.2434L98.3221 76.2235ZM98.3011 74.2881C98.2927 74.6565 98.3606 74.9707 98.505 75.2309C98.6494 75.4861 98.8437 75.6819 99.0879 75.8181C99.3321 75.9543 99.5924 76.0254 99.8687 76.0314C100.15 76.0375 100.398 75.9774 100.615 75.8511C100.836 75.7201 101.01 75.5275 101.137 75.2732C101.269 75.019 101.339 74.7126 101.348 74.3539C101.356 73.9904 101.3 73.6813 101.18 73.4265C101.065 73.167 100.899 72.967 100.684 72.8266C100.474 72.6863 100.229 72.6131 99.9474 72.607C99.6712 72.601 99.4079 72.6608 99.1577 72.7863C98.9075 72.9118 98.7043 73.1014 98.5481 73.3551C98.3921 73.6039 98.3097 73.9149 98.3011 74.2881ZM99.2754 74.3092C99.2801 74.1056 99.3252 73.9368 99.4107 73.8029C99.4964 73.6641 99.6103 73.5599 99.7525 73.4902C99.8948 73.4206 100.046 73.3875 100.206 73.3909C100.312 73.3932 100.416 73.4173 100.517 73.4631C100.618 73.5041 100.709 73.5642 100.789 73.6436C100.875 73.723 100.94 73.8214 100.986 73.9388C101.032 74.0562 101.053 74.1924 101.049 74.3475C101.045 74.5511 100.997 74.7222 100.907 74.8609C100.821 74.9948 100.71 75.0967 100.572 75.1664C100.44 75.2315 100.303 75.2625 100.163 75.2594C100.003 75.256 99.8535 75.2164 99.7146 75.1406C99.5757 75.0649 99.4666 74.9583 99.3873 74.8208C99.3081 74.6784 99.2708 74.5079 99.2754 74.3092ZM106.276 72.8165L105.295 72.7953L104.179 75.419L104.644 75.4436L103.63 72.7593L102.583 72.7367L103.902 75.7767L103.014 77.6924L103.981 77.7133L106.276 72.8165Z" fill="#353E6C"/>
<path d="M157.616 74.2097L158.845 73.9162L158.751 78.0022L159.762 78.0241L159.881 72.8475L157.638 73.2718L157.616 74.2097ZM165.021 76.4939C165.029 76.1449 164.963 75.8452 164.824 75.5949C164.689 75.3398 164.507 75.1419 164.277 75.0011C164.048 74.8604 163.795 74.787 163.519 74.781C163.368 74.7778 163.22 74.7891 163.074 74.8151C162.933 74.8363 162.799 74.8794 162.671 74.9446L163 73.9042L165 73.9475L165.021 73.0459L162.25 72.986L161.487 75.8355C161.663 75.7423 161.83 75.6732 161.986 75.6281C162.147 75.5782 162.303 75.5452 162.454 75.5291C162.605 75.5081 162.748 75.4991 162.884 75.502C163.068 75.506 163.237 75.5436 163.39 75.6148C163.549 75.6813 163.673 75.7785 163.762 75.9065C163.856 76.0346 163.901 76.1908 163.896 76.375C163.892 76.564 163.847 76.7231 163.762 76.8522C163.677 76.9764 163.556 77.0708 163.399 77.1353C163.247 77.1999 163.062 77.2298 162.844 77.2251C162.703 77.2221 162.556 77.1922 162.402 77.1355C162.249 77.074 162.1 76.9932 161.957 76.8931C161.819 76.7932 161.69 76.6813 161.572 76.5575L161.066 77.354C161.203 77.4976 161.363 77.632 161.544 77.7571C161.726 77.8774 161.937 77.9766 162.177 78.0545C162.423 78.1325 162.701 78.1749 163.011 78.1816C163.258 78.187 163.499 78.1582 163.733 78.0954C163.967 78.0326 164.181 77.9329 164.373 77.7965C164.565 77.66 164.72 77.4839 164.836 77.2682C164.953 77.0525 165.014 76.7944 165.021 76.4939ZM165.736 74.2325C165.731 74.4652 165.782 74.6821 165.888 74.8832C166 75.0796 166.154 75.2381 166.35 75.3587C166.546 75.4794 166.768 75.5423 167.015 75.5477C167.267 75.5531 167.492 75.4998 167.688 75.3877C167.89 75.2756 168.048 75.1239 168.164 74.9324C168.28 74.7361 168.341 74.5216 168.346 74.2889C168.352 74.0466 168.301 73.8273 168.194 73.631C168.087 73.4347 167.936 73.2787 167.739 73.1629C167.548 73.0424 167.327 72.9794 167.074 72.9739C166.827 72.9686 166.603 73.0219 166.402 73.134C166.2 73.2411 166.039 73.3904 165.918 73.5818C165.802 73.7733 165.742 73.9902 165.736 74.2325ZM166.521 74.2495C166.524 74.1477 166.548 74.0561 166.593 73.9746C166.639 73.8932 166.701 73.829 166.779 73.7823C166.858 73.7306 166.951 73.7059 167.058 73.7082C167.164 73.7106 167.253 73.7392 167.325 73.794C167.401 73.8442 167.46 73.9109 167.502 73.9943C167.544 74.0776 167.563 74.1702 167.561 74.272C167.559 74.3689 167.535 74.4605 167.489 74.5468C167.444 74.6283 167.382 74.6924 167.303 74.7392C167.229 74.7861 167.139 74.8084 167.032 74.8061C166.926 74.8038 166.834 74.7776 166.758 74.7274C166.681 74.6773 166.622 74.6105 166.58 74.5272C166.539 74.439 166.519 74.3464 166.521 74.2495ZM168.981 77.0523C168.976 77.2898 169.026 77.5067 169.133 77.703C169.245 77.8994 169.399 78.0579 169.595 78.1785C169.791 78.2991 170.013 78.3621 170.26 78.3674C170.512 78.3729 170.737 78.3195 170.933 78.2074C171.135 78.0954 171.293 77.9436 171.409 77.7522C171.525 77.5607 171.586 77.3462 171.591 77.1087C171.597 76.8712 171.546 76.6543 171.439 76.458C171.332 76.2569 171.18 76.0984 170.984 75.9826C170.793 75.8621 170.571 75.7991 170.319 75.7937C170.072 75.7883 169.848 75.8417 169.646 75.9537C169.445 76.0609 169.284 76.2126 169.163 76.4088C169.047 76.6003 168.987 76.8148 168.981 77.0523ZM169.766 77.0692C169.769 76.9675 169.793 76.8758 169.838 76.7944C169.884 76.7129 169.946 76.6488 170.024 76.602C170.103 76.5552 170.196 76.533 170.302 76.5353C170.409 76.5376 170.498 76.5638 170.57 76.6138C170.646 76.6639 170.705 76.7307 170.747 76.814C170.789 76.8974 170.808 76.9899 170.806 77.0917C170.804 77.1887 170.78 77.2803 170.734 77.3666C170.689 77.448 170.627 77.5122 170.548 77.559C170.474 77.6059 170.384 77.6282 170.277 77.6259C170.171 77.6235 170.079 77.5973 170.003 77.5472C169.926 77.497 169.867 77.4303 169.825 77.3469C169.784 77.2588 169.764 77.1662 169.766 77.0692ZM170.104 73.1558L166.279 78.165L167.231 78.1856L171.056 73.1764L170.104 73.1558Z" fill="#45B751"/>
<path d="M176.071 73.2254L178.47 76.2422L173.658 76.2375L176.071 73.2254Z" fill="#45B751"/>
<path d="M70.263 100.417C58.7343 93.7653 45.6791 96.2607 40.5926 98.34L40.2397 120.349L175.903 123.185L176.131 108.963C173.23 103.821 164.089 95.2504 150.733 102.099C134.037 110.661 123.864 106.693 115.973 99.9158C109.661 94.4936 101.444 97.8561 98.124 100.215C93.6407 103.054 81.7917 107.069 70.263 100.417Z" fill="url(#paint2_linear_61_453)"/>
<path d="M40.5927 98.3359C45.6674 96.2597 58.6925 93.7676 70.1945 100.41C81.6964 107.052 93.518 103.042 97.9911 100.207C101.303 97.8517 109.501 94.494 115.799 99.9081C123.672 106.676 133.821 110.637 150.478 102.088C163.803 95.2487 172.923 103.807 175.817 108.941" stroke="#24B8D2" stroke-width="0.72724" stroke-linecap="round" stroke-linejoin="round"/>
<path d="M94.0376 103.782C67.5118 57.5575 41.5832 111.199 40.5229 111.18L40.4165 116.726C40.2802 123.835 45.9323 129.699 53.0408 129.826L162.806 131.777C169.914 131.903 175.788 126.243 175.924 119.135L176.298 99.6223C162.647 122.089 154.823 117.052 152.618 111.725C147.484 100.928 133.759 83.7711 119.93 101.515C106.101 119.258 96.9064 110.419 94.0376 103.782Z" fill="url(#paint3_linear_61_453)"/>
<path d="M40.6582 111.152C41.716 111.171 67.5838 57.587 94.0448 103.761C96.9067 110.391 106.079 119.22 119.875 101.495C133.671 83.7706 147.363 100.909 152.484 111.694C154.684 117.015 162.489 122.046 176.108 99.6037" stroke="#7F7CFF" stroke-width="0.727241" stroke-linecap="round" stroke-linejoin="round"/>
<g filter="url(#filter1_i_61_453)">
<rect width="130.384" height="63.8264" rx="13.6921" transform="matrix(0.999992 0.00412006 -0.00554003 0.999985 202.705 71.0459)" fill="url(#paint4_linear_61_453)" fill-opacity="0.93"/>
</g>
<path d="M262.014 100.176L265.725 100.262C265.604 100.653 265.435 101.013 265.218 101.34C265 101.668 264.735 101.957 264.421 102.209C264.119 102.46 263.757 102.655 263.335 102.793C262.913 102.919 262.437 102.975 261.908 102.963C261.108 102.944 260.392 102.743 259.761 102.359C259.143 101.975 258.657 101.447 258.304 100.773C257.951 100.088 257.786 99.3019 257.808 98.4156C257.83 97.5171 258.034 96.7459 258.419 96.1022C258.816 95.4587 259.34 94.972 259.988 94.6422C260.637 94.3002 261.349 94.1381 262.125 94.1561C262.949 94.1753 263.64 94.3699 264.198 94.74C264.768 95.0981 265.206 95.564 265.512 96.1376L267.797 94.8791C267.418 94.2668 266.957 93.7388 266.413 93.2951C265.883 92.8394 265.263 92.4802 264.555 92.2174C263.86 91.955 263.069 91.8134 262.183 91.7929C261.186 91.7697 260.259 91.9083 259.401 92.2086C258.544 92.5089 257.794 92.9471 257.152 93.5234C256.51 94.0996 256 94.8021 255.622 95.6308C255.257 96.4475 255.063 97.3543 255.038 98.3513C255.014 99.3483 255.157 100.269 255.469 101.114C255.793 101.959 256.255 102.69 256.856 103.308C257.469 103.925 258.19 104.41 259.019 104.762C259.86 105.114 260.779 105.301 261.776 105.325C262.835 105.349 263.781 105.18 264.615 104.818C265.449 104.455 266.151 103.948 266.722 103.297C267.304 102.633 267.736 101.867 268.016 100.999C268.308 100.131 268.448 99.2047 268.435 98.2191L262.065 98.0712L262.014 100.176ZM272.753 96.7307L270.409 96.6762L270.2 105.169L272.545 105.224L272.753 96.7307ZM275.185 99.2811L276.324 97.2755C276.157 97.0499 275.934 96.8785 275.653 96.7611C275.385 96.6441 275.097 96.5819 274.789 96.5748C274.346 96.5645 273.912 96.7145 273.485 97.0248C273.059 97.3228 272.71 97.7334 272.439 98.2567C272.168 98.7677 272.024 99.3617 272.007 100.039L272.655 100.719C272.665 100.313 272.723 99.9691 272.828 99.6882C272.947 99.3954 273.112 99.1714 273.325 99.0163C273.539 98.8611 273.793 98.787 274.088 98.7938C274.334 98.7995 274.536 98.8473 274.694 98.9372C274.865 99.0151 275.028 99.1297 275.185 99.2811ZM276.656 101.07C276.634 101.944 276.818 102.724 277.208 103.411C277.61 104.085 278.157 104.615 278.85 105.001C279.555 105.387 280.356 105.59 281.255 105.611C282.153 105.632 282.958 105.466 283.669 105.113C284.392 104.76 284.965 104.256 285.387 103.601C285.822 102.934 286.051 102.163 286.072 101.289C286.094 100.403 285.904 99.6225 285.502 98.9481C285.112 98.274 284.564 97.744 283.86 97.3582C283.167 96.9726 282.371 96.7694 281.473 96.7485C280.574 96.7276 279.763 96.8935 279.04 97.2462C278.33 97.5992 277.757 98.1032 277.322 98.7581C276.9 99.4133 276.677 100.184 276.656 101.07ZM279.093 101.127C279.105 100.647 279.214 100.225 279.42 99.8598C279.638 99.4954 279.922 99.2188 280.271 99.0298C280.621 98.8409 281.005 98.7513 281.423 98.761C281.842 98.7707 282.221 98.8781 282.561 99.083C282.901 99.2879 283.164 99.5773 283.352 99.9512C283.553 100.325 283.647 100.752 283.635 101.232C283.623 101.712 283.508 102.135 283.29 102.499C283.084 102.851 282.806 103.128 282.456 103.33C282.107 103.518 281.723 103.608 281.304 103.598C280.886 103.589 280.507 103.481 280.167 103.276C279.827 103.059 279.557 102.77 279.357 102.408C279.169 102.034 279.081 101.607 279.093 101.127ZM286.445 97.0487L290.395 106.211L293.186 100.863L295.786 106.336L300.163 97.3674L297.634 97.3087L295.634 101.991L293.274 96.5608L290.742 101.859L288.993 97.1079L286.445 97.0487Z" fill="#303030"/>
<path d="M256.764 110.44L258.409 113.248L260.191 110.519L260.489 113.845L261.747 113.874L261.021 107.65L258.454 111.408L256.075 107.535L255.045 113.719L256.302 113.748L256.764 110.44ZM263.399 112.705C263.401 112.592 263.429 112.5 263.481 112.428C263.534 112.351 263.614 112.293 263.722 112.256C263.83 112.214 263.968 112.195 264.137 112.198C264.346 112.203 264.542 112.236 264.726 112.297C264.916 112.357 265.086 112.446 265.235 112.562L265.247 112.055C265.193 111.987 265.101 111.914 264.974 111.838C264.846 111.762 264.687 111.696 264.497 111.641C264.313 111.586 264.097 111.556 263.849 111.55C263.365 111.539 262.988 111.64 262.719 111.853C262.449 112.066 262.309 112.362 262.3 112.739C262.293 113.003 262.35 113.229 262.469 113.418C262.594 113.601 262.759 113.743 262.965 113.843C263.171 113.944 263.395 113.997 263.637 114.003C263.873 114.008 264.099 113.971 264.315 113.892C264.537 113.812 264.717 113.69 264.856 113.524C265.001 113.359 265.077 113.152 265.083 112.904L264.96 112.395C264.956 112.581 264.909 112.74 264.822 112.873C264.734 113.001 264.622 113.099 264.485 113.169C264.348 113.234 264.196 113.264 264.027 113.26C263.909 113.257 263.799 113.235 263.699 113.193C263.604 113.146 263.53 113.082 263.476 113.002C263.421 112.917 263.396 112.817 263.399 112.705ZM263.015 111.117C263.073 111.079 263.161 111.033 263.281 110.979C263.4 110.926 263.542 110.881 263.706 110.846C263.87 110.81 264.042 110.794 264.222 110.799C264.341 110.801 264.447 110.815 264.542 110.84C264.637 110.865 264.718 110.903 264.784 110.955C264.856 111.008 264.908 111.073 264.94 111.153C264.972 111.227 264.987 111.317 264.984 111.424L264.922 113.948L265.977 113.972L266.045 111.221C266.051 110.956 265.983 110.732 265.842 110.549C265.7 110.36 265.501 110.215 265.244 110.113C264.988 110.011 264.694 109.957 264.362 109.949C264.001 109.94 263.674 109.984 263.379 110.078C263.084 110.167 262.834 110.262 262.628 110.365L263.015 111.117ZM268.161 110.138L267.089 110.114L266.994 113.996L268.066 114.021L268.161 110.138ZM269.273 111.304L269.794 110.387C269.717 110.284 269.615 110.206 269.487 110.152C269.364 110.099 269.233 110.07 269.092 110.067C268.89 110.062 268.691 110.131 268.496 110.273C268.301 110.409 268.142 110.597 268.018 110.836C267.894 111.07 267.828 111.341 267.82 111.651L268.117 111.962C268.121 111.776 268.148 111.619 268.196 111.49C268.25 111.357 268.325 111.254 268.423 111.183C268.52 111.112 268.637 111.078 268.772 111.082C268.884 111.084 268.977 111.106 269.049 111.147C269.127 111.183 269.201 111.235 269.273 111.304ZM270.419 107.488L270.257 114.072L271.313 114.096L271.474 107.513L270.419 107.488ZM272.834 110.247L271.124 111.812L272.916 114.134L274.216 114.164L272.432 111.842L274.143 110.277L272.834 110.247ZM276.497 114.301C276.965 114.312 277.366 114.231 277.703 114.059C278.045 113.881 278.322 113.612 278.533 113.251L277.587 112.933C277.47 113.116 277.323 113.254 277.146 113.345C276.975 113.431 276.768 113.472 276.526 113.466C276.313 113.461 276.131 113.409 275.981 113.31C275.832 113.21 275.72 113.07 275.645 112.888C275.577 112.706 275.546 112.486 275.552 112.227C275.564 111.957 275.609 111.733 275.687 111.555C275.77 111.371 275.883 111.236 276.026 111.149C276.175 111.056 276.356 111.013 276.57 111.018C276.744 111.022 276.895 111.065 277.023 111.147C277.15 111.228 277.246 111.338 277.31 111.474C277.38 111.611 277.413 111.775 277.408 111.966C277.407 112.006 277.394 112.056 277.37 112.117C277.352 112.173 277.331 112.218 277.308 112.251L277.613 111.87L275.089 111.811L275.073 112.486L278.55 112.567C278.557 112.533 278.56 112.488 278.562 112.432C278.569 112.376 278.573 112.323 278.574 112.272C278.585 111.856 278.514 111.499 278.364 111.203C278.214 110.901 277.989 110.671 277.689 110.512C277.394 110.347 277.033 110.26 276.606 110.25C276.178 110.24 275.804 110.316 275.485 110.477C275.166 110.633 274.916 110.861 274.734 111.161C274.557 111.455 274.464 111.811 274.454 112.227C274.444 112.638 274.52 112.997 274.681 113.305C274.848 113.607 275.087 113.846 275.398 114.022C275.709 114.199 276.075 114.291 276.497 114.301ZM278.947 110.389L278.925 111.309L281.322 111.365L281.344 110.445L278.947 110.389ZM279.647 109.054L279.519 114.287L280.574 114.312L280.702 109.079L279.647 109.054ZM281.913 108.955C281.908 109.129 281.969 109.277 282.096 109.398C282.223 109.519 282.376 109.582 282.556 109.586C282.736 109.59 282.889 109.535 283.016 109.419C283.148 109.304 283.217 109.159 283.221 108.985C283.225 108.805 283.164 108.657 283.038 108.542C282.917 108.421 282.766 108.358 282.586 108.354C282.406 108.35 282.25 108.405 282.118 108.52C281.985 108.63 281.917 108.775 281.913 108.955ZM281.994 110.46L281.898 114.342L282.962 114.367L283.057 110.484L281.994 110.46ZM286.687 112.089L286.629 114.452L287.76 114.478L287.821 111.997C287.833 111.53 287.729 111.164 287.51 110.9C287.292 110.631 286.952 110.49 286.49 110.48C286.215 110.473 285.977 110.527 285.777 110.641C285.583 110.749 285.424 110.911 285.301 111.128L285.315 110.537L284.218 110.511L284.122 114.394L285.22 114.419L285.278 112.056C285.282 111.893 285.316 111.753 285.381 111.636C285.446 111.52 285.538 111.432 285.658 111.372C285.778 111.308 285.913 111.277 286.065 111.281C286.29 111.286 286.452 111.357 286.55 111.495C286.648 111.632 286.694 111.83 286.687 112.089ZM288.645 114.769C288.659 115.107 288.742 115.408 288.893 115.67C289.05 115.938 289.278 116.146 289.579 116.294C289.879 116.448 290.254 116.529 290.704 116.54C291.076 116.549 291.421 116.483 291.739 116.344C292.058 116.211 292.314 115.992 292.507 115.687C292.706 115.382 292.811 114.99 292.823 114.512L292.917 110.713L291.862 110.689L291.768 114.487C291.762 114.752 291.706 114.97 291.6 115.142C291.5 115.314 291.367 115.441 291.202 115.521C291.043 115.602 290.873 115.64 290.693 115.636C290.496 115.631 290.325 115.594 290.18 115.523C290.036 115.452 289.923 115.353 289.841 115.228C289.76 115.108 289.718 114.963 289.717 114.794L288.645 114.769ZM288.624 112.522C288.614 112.95 288.692 113.315 288.859 113.617C289.026 113.914 289.251 114.142 289.535 114.3C289.818 114.459 290.12 114.542 290.441 114.549C290.767 114.557 291.056 114.487 291.307 114.341C291.564 114.19 291.767 113.966 291.915 113.671C292.069 113.377 292.15 113.021 292.161 112.605C292.171 112.182 292.107 111.823 291.968 111.528C291.834 111.226 291.643 110.994 291.394 110.83C291.15 110.667 290.865 110.581 290.538 110.574C290.218 110.566 289.912 110.635 289.621 110.78C289.331 110.926 289.094 111.145 288.913 111.44C288.731 111.728 288.635 112.089 288.624 112.522ZM289.755 112.549C289.761 112.312 289.814 112.116 289.913 111.961C290.013 111.8 290.145 111.679 290.311 111.599C290.476 111.518 290.651 111.48 290.837 111.484C290.961 111.487 291.081 111.515 291.198 111.569C291.315 111.617 291.42 111.687 291.514 111.779C291.613 111.871 291.689 111.986 291.742 112.122C291.795 112.258 291.819 112.416 291.815 112.596C291.809 112.833 291.753 113.031 291.648 113.192C291.548 113.348 291.419 113.466 291.259 113.546C291.105 113.622 290.947 113.657 290.784 113.654C290.598 113.649 290.425 113.603 290.263 113.515C290.102 113.427 289.976 113.303 289.884 113.143C289.792 112.977 289.749 112.779 289.755 112.549ZM296.041 109.849L297.628 109.886L297.51 114.705L298.717 114.733L298.835 109.914L300.43 109.951L300.457 108.862L296.068 108.76L296.041 109.849ZM301.388 110.91L300.316 110.885L300.22 114.768L301.292 114.793L301.388 110.91ZM302.499 112.076L303.02 111.159C302.944 111.056 302.842 110.978 302.713 110.924C302.591 110.871 302.459 110.842 302.319 110.839C302.116 110.834 301.917 110.903 301.722 111.045C301.528 111.181 301.368 111.369 301.244 111.608C301.12 111.841 301.054 112.113 301.047 112.422L301.343 112.733C301.348 112.548 301.374 112.391 301.422 112.262C301.476 112.128 301.552 112.026 301.649 111.955C301.747 111.884 301.863 111.85 301.998 111.853C302.111 111.856 302.203 111.878 302.275 111.919C302.353 111.955 302.428 112.007 302.499 112.076ZM304.315 113.655C304.318 113.543 304.346 113.451 304.398 113.379C304.451 113.301 304.531 113.244 304.639 113.207C304.747 113.164 304.885 113.145 305.054 113.149C305.262 113.154 305.459 113.186 305.643 113.247C305.833 113.308 306.002 113.396 306.152 113.512L306.164 113.006C306.11 112.937 306.018 112.864 305.891 112.788C305.763 112.712 305.604 112.647 305.414 112.591C305.23 112.537 305.014 112.506 304.766 112.5C304.282 112.489 303.905 112.59 303.635 112.803C303.366 113.017 303.226 113.312 303.217 113.689C303.21 113.953 303.267 114.18 303.386 114.368C303.511 114.552 303.676 114.693 303.882 114.794C304.088 114.894 304.312 114.947 304.554 114.953C304.79 114.958 305.016 114.922 305.232 114.842C305.454 114.763 305.634 114.64 305.773 114.475C305.918 114.309 305.994 114.103 306 113.855L305.877 113.345C305.873 113.531 305.826 113.69 305.739 113.824C305.651 113.951 305.539 114.05 305.402 114.12C305.265 114.184 305.113 114.214 304.944 114.21C304.826 114.208 304.716 114.185 304.616 114.144C304.521 114.096 304.447 114.033 304.393 113.953C304.338 113.867 304.313 113.768 304.315 113.655ZM303.932 112.067C303.99 112.029 304.078 111.983 304.197 111.93C304.317 111.876 304.459 111.832 304.623 111.796C304.787 111.761 304.959 111.745 305.139 111.749C305.258 111.752 305.364 111.765 305.459 111.79C305.554 111.815 305.635 111.853 305.701 111.906C305.773 111.958 305.825 112.024 305.857 112.103C305.889 112.177 305.904 112.268 305.901 112.375L305.839 114.898L306.894 114.923L306.962 112.171C306.968 111.907 306.9 111.683 306.759 111.499C306.617 111.31 306.418 111.165 306.161 111.063C305.905 110.962 305.61 110.907 305.278 110.899C304.918 110.891 304.591 110.934 304.296 111.028C304.001 111.117 303.751 111.213 303.545 111.315L303.932 112.067ZM307.677 111.056L307.655 111.976L310.085 112.033L310.108 111.113L307.677 111.056ZM310.029 109.506L310.514 108.698C310.464 108.641 310.396 108.58 310.307 108.516C310.224 108.452 310.121 108.399 309.998 108.357C309.876 108.309 309.727 108.283 309.553 108.279C309.26 108.272 309.011 108.323 308.806 108.431C308.601 108.533 308.445 108.684 308.339 108.884C308.232 109.085 308.176 109.334 308.168 109.632L308.038 114.949L309.093 114.974L309.217 109.901C309.221 109.755 309.241 109.634 309.277 109.54C309.313 109.445 309.36 109.378 309.417 109.34C309.48 109.297 309.554 109.276 309.638 109.278C309.706 109.279 309.773 109.298 309.839 109.333C309.912 109.363 309.975 109.421 310.029 109.506ZM310.43 111.12L310.408 112.04L312.839 112.097L312.861 111.177L310.43 111.12ZM312.782 109.57L313.267 108.762C313.218 108.705 313.149 108.644 313.06 108.58C312.977 108.516 312.874 108.463 312.752 108.421C312.629 108.373 312.48 108.347 312.306 108.343C312.013 108.336 311.764 108.387 311.559 108.495C311.354 108.597 311.198 108.748 311.092 108.948C310.985 109.149 310.929 109.398 310.921 109.696L310.791 115.013L311.846 115.038L311.97 109.965C311.974 109.819 311.994 109.698 312.03 109.604C312.066 109.509 312.113 109.442 312.17 109.404C312.233 109.361 312.307 109.34 312.391 109.342C312.459 109.343 312.526 109.362 312.592 109.397C312.665 109.427 312.728 109.485 312.782 109.57ZM313.499 109.688C313.495 109.863 313.556 110.011 313.682 110.132C313.809 110.253 313.962 110.316 314.142 110.32C314.322 110.324 314.475 110.268 314.602 110.153C314.735 110.038 314.803 109.893 314.807 109.719C314.812 109.539 314.75 109.391 314.624 109.275C314.503 109.154 314.352 109.092 314.172 109.088C313.992 109.083 313.836 109.139 313.704 109.254C313.572 109.363 313.503 109.508 313.499 109.688ZM313.58 111.193L313.485 115.076L314.548 115.101L314.644 111.218L313.58 111.193ZM316.583 113.206C316.589 112.986 316.644 112.793 316.75 112.627C316.855 112.46 316.993 112.331 317.165 112.239C317.342 112.142 317.534 112.096 317.742 112.101C317.9 112.105 318.057 112.134 318.213 112.188C318.369 112.242 318.511 112.319 318.638 112.417C318.771 112.51 318.87 112.62 318.934 112.745L318.962 111.623C318.83 111.501 318.655 111.404 318.437 111.332C318.225 111.254 317.975 111.211 317.688 111.204C317.278 111.195 316.904 111.271 316.568 111.432C316.237 111.593 315.973 111.823 315.774 112.123C315.581 112.422 315.479 112.775 315.469 113.18C315.459 113.579 315.544 113.936 315.722 114.25C315.906 114.558 316.159 114.8 316.481 114.977C316.809 115.153 317.178 115.246 317.589 115.256C317.876 115.262 318.127 115.235 318.342 115.172C318.564 115.104 318.743 115.01 318.881 114.889L318.909 113.766C318.838 113.889 318.737 113.996 318.606 114.089C318.48 114.176 318.337 114.246 318.178 114.298C318.019 114.345 317.855 114.367 317.687 114.363C317.478 114.358 317.288 114.306 317.116 114.206C316.95 114.106 316.818 113.971 316.721 113.8C316.624 113.629 316.578 113.431 316.583 113.206Z" fill="#303030"/>
<ellipse cx="230.539" cy="103.427" rx="17.6906" ry="17.7275" transform="rotate(21.7327 230.539 103.427)" fill="#CFDDFF"/>
<g filter="url(#filter2_d_61_453)">
<ellipse cx="230.54" cy="103.427" rx="9.18119" ry="9.20036" transform="rotate(21.7327 230.54 103.427)" fill="#2562FF"/>
<path d="M238.823 106.729C236.996 111.315 231.805 113.552 227.231 111.729C222.657 109.905 220.429 104.711 222.256 100.126C224.084 95.5404 229.275 93.3027 233.849 95.1261C238.423 96.9495 240.651 102.144 238.823 106.729Z" stroke="#CAD9FF" stroke-width="0.527677"/>
</g>
<path d="M133.886 148L132.395 295.766M269.31 149.251L267.819 297.017M202.64 148.635L201.149 296.401M337.369 149.879L335.878 297.646M167.221 148.308L165.73 296.074M303.34 149.565L301.849 297.331M235.974 148.943L234.483 296.709M371.399 150.194L369.907 297.96M104.541 269.34L403.861 272.105M105.178 206.139L404.498 208.903M104.854 238.185L404.174 240.949M105.501 174.093L404.821 176.858" stroke="#E4B5A8" stroke-width="0.411357"/>
<path d="M126.5 286L195.577 226.681L220 258L275.5 212L319.322 262.876L383.5 193" stroke="url(#paint5_linear_61_453)" stroke-width="8" stroke-linecap="round"/>
<g filter="url(#filter3_d_61_453)">
<ellipse cx="276.228" cy="212.741" rx="12.0979" ry="12.1232" transform="rotate(21.7327 276.228 212.741)" fill="white"/>
<path d="M285.608 216.48C283.536 221.677 277.656 224.208 272.479 222.145C267.302 220.081 264.776 214.199 266.847 209.002C268.919 203.805 274.799 201.274 279.976 203.337C285.153 205.401 287.679 211.283 285.608 216.48Z" stroke="#3DACB7" stroke-width="4"/>
</g>
<g filter="url(#filter4_d_61_453)">
<ellipse cx="218.228" cy="258.741" rx="12.0979" ry="12.1232" transform="rotate(21.7327 218.228 258.741)" fill="white"/>
<path d="M227.608 262.48C225.536 267.677 219.656 270.208 214.479 268.145C209.302 266.081 206.776 260.199 208.847 255.002C210.919 249.805 216.799 247.274 221.976 249.337C227.153 251.401 229.679 257.283 227.608 262.48Z" stroke="#3D95CF" stroke-width="4"/>
</g>
<g filter="url(#filter5_d_61_453)">
<ellipse cx="321.228" cy="258.741" rx="12.0979" ry="12.1232" transform="rotate(21.7327 321.228 258.741)" fill="white"/>
<path d="M330.608 262.48C328.536 267.677 322.656 270.208 317.479 268.145C312.302 266.081 309.776 260.199 311.847 255.002C313.919 249.805 319.799 247.274 324.976 249.337C330.153 251.401 332.679 257.283 330.608 262.48Z" stroke="#3DC39E" stroke-width="4"/>
</g>
<g filter="url(#filter6_d_61_453)">
<ellipse cx="192.204" cy="227.718" rx="12.0803" ry="12.1055" transform="rotate(21.7327 192.204 227.718)" fill="white"/>
<path d="M201.568 231.451C199.5 236.639 193.63 239.165 188.462 237.105C183.294 235.045 180.772 229.174 182.84 223.986C184.908 218.798 190.778 216.271 195.946 218.331C201.114 220.391 203.636 226.263 201.568 231.451Z" stroke="#3C88DC" stroke-width="4"/>
</g>
<defs>
<filter id="filter0_i_61_453" x="28.9043" y="54.5864" width="161.115" height="85.0171" filterUnits="userSpaceOnUse" color-interpolation-filters="sRGB">
<feFlood flood-opacity="0" result="BackgroundImageFix"/>
<feBlend mode="normal" in="SourceGraphic" in2="BackgroundImageFix" result="shape"/>
<feColorMatrix in="SourceAlpha" type="matrix" values="0 0 0 0 0 0 0 0 0 0 0 0 0 0 0 0 0 0 127 0" result="hardAlpha"/>
<feOffset dx="-1.02691" dy="1.02691"/>
<feComposite in2="hardAlpha" operator="arithmetic" k2="-1" k3="1"/>
<feColorMatrix type="matrix" values="0 0 0 0 1 0 0 0 0 1 0 0 0 0 1 0 0 0 1 0"/>
<feBlend mode="normal" in2="shape" result="effect1_innerShadow_61_453"/>
</filter>
<filter id="filter1_i_61_453" x="202.428" y="71.1021" width="130.584" height="64.25" filterUnits="userSpaceOnUse" color-interpolation-filters="sRGB">
<feFlood flood-opacity="0" result="BackgroundImageFix"/>
<feBlend mode="normal" in="SourceGraphic" in2="BackgroundImageFix" result="shape"/>
<feColorMatrix in="SourceAlpha" type="matrix" values="0 0 0 0 0 0 0 0 0 0 0 0 0 0 0 0 0 0 127 0" result="hardAlpha"/>
<feOffset dx="-1.02691" dy="1.02691"/>
<feComposite in2="hardAlpha" operator="arithmetic" k2="-1" k3="1"/>
<feColorMatrix type="matrix" values="0 0 0 0 1 0 0 0 0 1 0 0 0 0 1 0 0 0 1 0"/>
<feBlend mode="normal" in2="shape" result="effect1_innerShadow_61_453"/>
</filter>
<filter id="filter2_d_61_453" x="219.77" y="94.2271" width="24.7052" height="25.2602" filterUnits="userSpaceOnUse" color-interpolation-filters="sRGB">
<feFlood flood-opacity="0" result="BackgroundImageFix"/>
<feColorMatrix in="SourceAlpha" type="matrix" values="0 0 0 0 0 0 0 0 0 0 0 0 0 0 0 0 0 0 127 0" result="hardAlpha"/>
<feOffset dx="1.58303" dy="3.69374"/>
<feGaussianBlur stdDeviation="1.58303"/>
<feComposite in2="hardAlpha" operator="out"/>
<feColorMatrix type="matrix" values="0 0 0 0 0.66125 0 0 0 0 0.717563 0 0 0 0 0.8625 0 0 0 1 0"/>
<feBlend mode="normal" in2="BackgroundImageFix" result="effect1_dropShadow_61_453"/>
<feBlend mode="normal" in="SourceGraphic" in2="effect1_dropShadow_61_453" result="shape"/>
</filter>
<filter id="filter3_d_61_453" x="262.332" y="200.618" width="31.3724" height="32.006" filterUnits="userSpaceOnUse" color-interpolation-filters="sRGB">
<feFlood flood-opacity="0" result="BackgroundImageFix"/>
<feColorMatrix in="SourceAlpha" type="matrix" values="0 0 0 0 0 0 0 0 0 0 0 0 0 0 0 0 0 0 127 0" result="hardAlpha"/>
<feOffset dx="1.79086" dy="4.17866"/>
<feGaussianBlur stdDeviation="1.79086"/>
<feComposite in2="hardAlpha" operator="out"/>
<feColorMatrix type="matrix" values="0 0 0 0 0.875 0 0 0 0 0.73125 0 0 0 0 0.707292 0 0 0 1 0"/>
<feBlend mode="multiply" in2="BackgroundImageFix" result="effect1_dropShadow_61_453"/>
<feBlend mode="normal" in="SourceGraphic" in2="effect1_dropShadow_61_453" result="shape"/>
</filter>
<filter id="filter4_d_61_453" x="204.332" y="246.618" width="31.3724" height="32.006" filterUnits="userSpaceOnUse" color-interpolation-filters="sRGB">
<feFlood flood-opacity="0" result="BackgroundImageFix"/>
<feColorMatrix in="SourceAlpha" type="matrix" values="0 0 0 0 0 0 0 0 0 0 0 0 0 0 0 0 0 0 127 0" result="hardAlpha"/>
<feOffset dx="1.79086" dy="4.17866"/>
<feGaussianBlur stdDeviation="1.79086"/>
<feComposite in2="hardAlpha" operator="out"/>
<feColorMatrix type="matrix" values="0 0 0 0 0.875 0 0 0 0 0.73125 0 0 0 0 0.707292 0 0 0 1 0"/>
<feBlend mode="multiply" in2="BackgroundImageFix" result="effect1_dropShadow_61_453"/>
<feBlend mode="normal" in="SourceGraphic" in2="effect1_dropShadow_61_453" result="shape"/>
</filter>
<filter id="filter5_d_61_453" x="307.332" y="246.618" width="31.3724" height="32.006" filterUnits="userSpaceOnUse" color-interpolation-filters="sRGB">
<feFlood flood-opacity="0" result="BackgroundImageFix"/>
<feColorMatrix in="SourceAlpha" type="matrix" values="0 0 0 0 0 0 0 0 0 0 0 0 0 0 0 0 0 0 127 0" result="hardAlpha"/>
<feOffset dx="1.79086" dy="4.17866"/>
<feGaussianBlur stdDeviation="1.79086"/>
<feComposite in2="hardAlpha" operator="out"/>
<feColorMatrix type="matrix" values="0 0 0 0 0.875 0 0 0 0 0.73125 0 0 0 0 0.707292 0 0 0 1 0"/>
<feBlend mode="multiply" in2="BackgroundImageFix" result="effect1_dropShadow_61_453"/>
<feBlend mode="normal" in="SourceGraphic" in2="effect1_dropShadow_61_453" result="shape"/>
</filter>
<filter id="filter6_d_61_453" x="178.326" y="215.613" width="31.3372" height="31.9708" filterUnits="userSpaceOnUse" color-interpolation-filters="sRGB">
<feFlood flood-opacity="0" result="BackgroundImageFix"/>
<feColorMatrix in="SourceAlpha" type="matrix" values="0 0 0 0 0 0 0 0 0 0 0 0 0 0 0 0 0 0 127 0" result="hardAlpha"/>
<feOffset dx="1.79086" dy="4.17866"/>
<feGaussianBlur stdDeviation="1.79086"/>
<feComposite in2="hardAlpha" operator="out"/>
<feColorMatrix type="matrix" values="0 0 0 0 0.875 0 0 0 0 0.73125 0 0 0 0 0.707292 0 0 0 1 0"/>
<feBlend mode="multiply" in2="BackgroundImageFix" result="effect1_dropShadow_61_453"/>
<feBlend mode="normal" in="SourceGraphic" in2="effect1_dropShadow_61_453" result="shape"/>
</filter>
<linearGradient id="paint0_linear_61_453" x1="146.232" y1="30.4321" x2="11.7943" y2="1.06736" gradientUnits="userSpaceOnUse">
<stop stop-color="#F4F4F4"/>
<stop offset="0.421875" stop-color="#F4F4F4"/>
<stop offset="1" stop-color="white"/>
</linearGradient>
<linearGradient id="paint1_linear_61_453" x1="109.391" y1="68.3843" x2="108.964" y2="136.402" gradientUnits="userSpaceOnUse">
<stop stop-color="#DADADA"/>
<stop offset="1" stop-color="white" stop-opacity="0"/>
</linearGradient>
<linearGradient id="paint2_linear_61_453" x1="108.468" y1="97.0059" x2="107.951" y2="121.765" gradientUnits="userSpaceOnUse">
<stop stop-color="#65D2E5"/>
<stop offset="1" stop-color="white" stop-opacity="0"/>
</linearGradient>
<linearGradient id="paint3_linear_61_453" x1="108.789" y1="85.6691" x2="107.987" y2="130.802" gradientUnits="userSpaceOnUse">
<stop stop-color="#6865E5"/>
<stop offset="1" stop-color="white" stop-opacity="0"/>
</linearGradient>
<linearGradient id="paint4_linear_61_453" x1="118.88" y1="23.2751" x2="10.2306" y2="-1.95031" gradientUnits="userSpaceOnUse">
<stop stop-color="#F4F4F4"/>
<stop offset="0.421875" stop-color="#F4F4F4"/>
<stop offset="1" stop-color="white"/>
</linearGradient>
<linearGradient id="paint5_linear_61_453" x1="342.631" y1="185.962" x2="131.29" y2="245.963" gradientUnits="userSpaceOnUse">
<stop stop-color="#3DCF92"/>
<stop offset="1" stop-color="#3D67FF"/>
</linearGradient>
</defs>
</svg>
