<svg width="313" height="213" viewBox="0 0 313 213" fill="none" xmlns="http://www.w3.org/2000/svg">
<rect x="18.4277" width="292.359" height="142.519" rx="8.78541" fill="#CDD5EA"/>
<g filter="url(#filter0_d_61_501)">
<rect x="32.0938" y="26.8447" width="265.027" height="152.281" rx="8.78541" fill="white"/>
</g>
<rect x="225.373" y="12.6904" width="61.0098" height="4.39271" rx="2.19635" fill="white"/>
<rect x="62.8438" y="67.3545" width="93.7111" height="5.36886" rx="2.68443" fill="#E7E7E7"/>
<rect x="231.23" y="69.3066" width="38.5582" height="5.85694" rx="2.92847" fill="#353535"/>
<rect x="62.8438" y="58.0811" width="93.7111" height="5.85694" rx="2.92847" fill="#E7E7E7"/>
<rect x="231.23" y="58.0811" width="38.5582" height="5.85694" rx="2.92847" fill="#E7E7E7"/>
<rect x="62.8438" y="76.1406" width="93.7111" height="5.85694" rx="2.92847" fill="#E7E7E7"/>
<rect x="231.23" y="81.0215" width="38.5582" height="5.85694" rx="2.92847" fill="#E7E7E7"/>
<rect x="62.8438" y="85.4141" width="53.2006" height="5.36886" rx="2.68443" fill="#292929"/>
<rect x="231.23" y="92.7354" width="21.9635" height="5.85694" rx="2.92847" fill="#E7E7E7"/>
<circle cx="37.463" cy="15.13" r="4.39271" fill="#FE5151"/>
<circle cx="49.6642" cy="15.13" r="4.39271" fill="#FFAC2F"/>
<circle cx="61.8673" cy="15.13" r="4.39271" fill="#3FD28C"/>
<line x1="188.797" y1="120.489" x2="275.356" y2="120.489" stroke="#F1F1F1" stroke-width="0.488079"/>
<line x1="187.559" y1="137.21" x2="274.117" y2="137.21" stroke="#F1F1F1" stroke-width="0.488079"/>
<line x1="187.559" y1="112.128" x2="274.117" y2="112.128" stroke="#F1F1F1" stroke-width="0.488079"/>
<line x1="187.559" y1="128.85" x2="274.117" y2="128.85" stroke="#F1F1F1" stroke-width="0.488079"/>
<line x1="187.559" y1="103.768" x2="274.117" y2="103.768" stroke="#F1F1F1" stroke-width="0.488079"/>
<line x1="193.986" y1="95.6514" x2="193.986" y2="142.157" stroke="#F1F1F1" stroke-width="0.488079"/>
<line x1="223.664" y1="95.6514" x2="223.664" y2="142.157" stroke="#F1F1F1" stroke-width="0.488079"/>
<line x1="253.338" y1="95.6514" x2="253.338" y2="142.157" stroke="#F1F1F1" stroke-width="0.488079"/>
<line x1="203.879" y1="95.1289" x2="203.879" y2="141.634" stroke="#F1F1F1" stroke-width="0.488079"/>
<line x1="233.557" y1="95.1289" x2="233.557" y2="141.634" stroke="#F1F1F1" stroke-width="0.488079"/>
<line x1="263.234" y1="95.1289" x2="263.234" y2="141.634" stroke="#F1F1F1" stroke-width="0.488079"/>
<line x1="213.769" y1="95.1289" x2="213.769" y2="141.634" stroke="#F1F1F1" stroke-width="0.488079"/>
<line x1="243.447" y1="95.1289" x2="243.447" y2="141.634" stroke="#F1F1F1" stroke-width="0.488079"/>
<line x1="273.125" y1="95.1289" x2="273.125" y2="141.634" stroke="#F1F1F1" stroke-width="0.488079"/>
<path d="M233.249 125.094C208.887 116.351 192.778 133.352 187.039 144.114C186.701 144.747 187.174 145.487 187.891 145.487H274.561C275.095 145.487 275.529 145.078 275.531 144.544C275.558 138.103 275.351 100.839 266.879 100.839C257.605 100.839 258.675 134.219 233.249 125.094Z" fill="url(#paint0_linear_61_501)"/>
<path d="M179.955 91V152.526H283.305" stroke="#2562FF"/>
<circle cx="215.875" cy="120.606" r="10.0056" fill="white"/>
<ellipse cx="215.874" cy="120.851" rx="6.58906" ry="6.8331" fill="#5C5CE9"/>
<rect x="149.424" y="119" width="7.07524" height="31.9176" rx="3.53762" fill="#EEEEEE"/>
<rect x="149.424" y="133.127" width="7.07524" height="17.7901" rx="3.53762" fill="#5C5CE9"/>
<rect x="134.938" y="119" width="7.07524" height="31.9176" rx="3.53762" fill="#EEEEEE"/>
<rect x="134.938" y="140.453" width="7.07524" height="10.4648" rx="3.53762" fill="#5C5CE9"/>
<rect x="120.449" y="119" width="7.07524" height="31.9176" rx="3.53762" fill="#EEEEEE"/>
<rect x="120.449" y="126.326" width="7.07524" height="24.5922" rx="3.53762" fill="#5C5CE9"/>
<rect x="105.961" y="119" width="7.07524" height="31.9176" rx="3.53762" fill="#EEEEEE"/>
<rect x="105.961" y="129.465" width="7.07524" height="21.4528" rx="3.53762" fill="#5C5CE9"/>
<rect x="91.4746" y="119" width="7.07524" height="31.9176" rx="3.53762" fill="#EEEEEE"/>
<rect x="91.4746" y="133.127" width="7.07524" height="17.7901" rx="3.53762" fill="#5C5CE9"/>
<rect x="76.9883" y="119" width="7.07524" height="31.9176" rx="3.53762" fill="#EEEEEE"/>
<rect x="76.9883" y="124.756" width="7.07524" height="26.1619" rx="3.53762" fill="#5C5CE9"/>
<rect x="62.5" y="119" width="7.07524" height="31.9176" rx="3.53762" fill="#EEEEEE"/>
<rect x="62.5" y="137.836" width="7.07524" height="13.081" rx="3.53762" fill="#5C5CE9"/>
<defs>
<filter id="filter0_d_61_501" x="0.856725" y="13.6666" width="311.883" height="199.136" filterUnits="userSpaceOnUse" color-interpolation-filters="sRGB">
<feFlood flood-opacity="0" result="BackgroundImageFix"/>
<feColorMatrix in="SourceAlpha" type="matrix" values="0 0 0 0 0 0 0 0 0 0 0 0 0 0 0 0 0 0 127 0" result="hardAlpha"/>
<feOffset dx="-7.80926" dy="10.2496"/>
<feGaussianBlur stdDeviation="11.7139"/>
<feComposite in2="hardAlpha" operator="out"/>
<feColorMatrix type="matrix" values="0 0 0 0 0.941667 0 0 0 0 0.900905 0 0 0 0 0.898507 0 0 0 0.25 0"/>
<feBlend mode="multiply" in2="BackgroundImageFix" result="effect1_dropShadow_61_501"/>
<feBlend mode="normal" in="SourceGraphic" in2="effect1_dropShadow_61_501" result="shape"/>
</filter>
<linearGradient id="paint0_linear_61_501" x1="230.935" y1="91.5654" x2="230.935" y2="145.487" gradientUnits="userSpaceOnUse">
<stop stop-color="#FFE279"/>
<stop offset="1" stop-color="#FFDC60"/>
</linearGradient>
</defs>
</svg>
