<svg width="44" height="44" viewBox="0 0 44 44" fill="none" xmlns="http://www.w3.org/2000/svg">
<path d="M33.0859 0C33.5443 0.0572917 34.0241 0.093099 34.5254 0.107422C35.0267 0.121745 35.5065 0.186198 35.9648 0.300781C36.4518 0.358073 36.9245 0.465495 37.3828 0.623047C37.8411 0.780599 38.2708 0.973958 38.6719 1.20312C39.1302 1.43229 39.5599 1.6901 39.9609 1.97656C40.362 2.26302 40.7344 2.59245 41.0781 2.96484C41.737 3.65234 42.2884 4.43294 42.7324 5.30664C43.1764 6.18034 43.4844 7.10417 43.6562 8.07812C43.7708 8.5651 43.8496 9.04492 43.8926 9.51758C43.9355 9.99023 43.957 10.4701 43.957 10.957H44V33.0859C43.9714 33.5729 43.9355 34.0599 43.8926 34.5469C43.8496 35.0339 43.7995 35.5065 43.7422 35.9648C43.6562 36.4805 43.5345 36.9674 43.377 37.4258C43.2194 37.8841 43.026 38.3424 42.7969 38.8008C42.5677 39.2305 42.3171 39.6387 42.0449 40.0254C41.7728 40.4121 41.4648 40.7773 41.1211 41.1211C40.7487 41.4648 40.362 41.7728 39.9609 42.0449C39.5599 42.3171 39.1302 42.5677 38.6719 42.7969C38.2708 43.026 37.8483 43.2122 37.4043 43.3555C36.9603 43.4987 36.5091 43.6133 36.0508 43.6992C35.5638 43.8138 35.0768 43.8926 34.5898 43.9355C34.1029 43.9785 33.6159 44 33.1289 44H10.8281C10.3698 43.9427 9.88997 43.9069 9.38867 43.8926C8.88737 43.8783 8.40755 43.8138 7.94922 43.6992C7.46224 43.6419 6.99674 43.5345 6.55273 43.377C6.10872 43.2194 5.67188 43.026 5.24219 42.7969C4.78385 42.5677 4.36133 42.3171 3.97461 42.0449C3.58789 41.7728 3.22266 41.4648 2.87891 41.1211C2.22005 40.4336 1.66146 39.6458 1.20312 38.7578C0.744792 37.8698 0.429688 36.9388 0.257812 35.9648C0.171875 35.5065 0.107422 35.0339 0.0644531 34.5469C0.0214844 34.0599 0 33.5729 0 33.0859V10.7422C0.0286458 10.2552 0.0644531 9.77539 0.107422 9.30273C0.150391 8.83008 0.200521 8.35026 0.257812 7.86328C0.34375 7.3763 0.465495 6.89648 0.623047 6.42383C0.780599 5.95117 0.973958 5.5 1.20312 5.07031C1.43229 4.61198 1.6901 4.18945 1.97656 3.80273C2.26302 3.41602 2.57812 3.05078 2.92188 2.70703C3.00781 2.62109 3.10091 2.54948 3.20117 2.49219C3.30143 2.4349 3.39453 2.34896 3.48047 2.23438C3.76693 2.00521 4.05339 1.79036 4.33984 1.58984C4.6263 1.38932 4.92708 1.20312 5.24219 1.03125L5.88672 0.773438C6.23047 0.630208 6.57422 0.508464 6.91797 0.408203C7.26172 0.307943 7.60547 0.229167 7.94922 0.171875C8.32161 0.114583 8.67969 0.0716146 9.02344 0.0429688C9.36719 0.0143229 9.72526 0 10.0977 0H33.0859ZM25.8672 8.12109C26.6693 9.18099 27.3568 10.2839 27.9297 11.4297C28.5026 12.6042 28.9395 13.7858 29.2402 14.9746C29.541 16.1634 29.6914 17.3594 29.6914 18.5625C29.7201 19.737 29.5768 20.8971 29.2617 22.043C29.2044 22.2435 29.14 22.444 29.0684 22.6445C28.9967 22.8451 28.918 23.0456 28.832 23.2461L28.2305 22.9023C26.8555 22.0143 25.4948 21.0977 24.1484 20.1523C22.8021 19.207 21.4915 18.2259 20.2168 17.209C18.9421 16.1921 17.6888 15.1393 16.457 14.0508C15.2253 12.9622 14.0221 11.8307 12.8477 10.6562C13.5352 11.6589 14.2513 12.6615 14.9961 13.6641C15.7409 14.638 16.5 15.5977 17.2734 16.543C18.0469 17.4883 18.849 18.4193 19.6797 19.3359C20.4818 20.2526 21.3125 21.1406 22.1719 22C20.9974 21.2839 19.8372 20.5391 18.6914 19.7656C17.5742 19.0208 16.4642 18.2402 15.3613 17.4238C14.2585 16.6074 13.1628 15.7695 12.0742 14.9102C11.0143 14.0508 9.95443 13.1771 8.89453 12.2891C9.15234 12.7188 9.4388 13.1413 9.75391 13.5566C10.069 13.972 10.3984 14.3659 10.7422 14.7383C11.7161 15.9987 12.7474 17.2448 13.8359 18.4766C14.8958 19.6797 15.9915 20.8542 17.123 22C18.2546 23.1458 19.4219 24.263 20.625 25.3516C21.8568 26.4115 23.1029 27.4427 24.3633 28.4453C23.3893 29.0182 22.3294 29.4622 21.1836 29.7773C20.0378 30.0638 18.8275 30.2142 17.5527 30.2285C16.278 30.2428 14.9674 30.0924 13.6211 29.7773C12.2747 29.4909 10.9141 29.0469 9.53906 28.4453C8.88021 28.1589 8.23568 27.8294 7.60547 27.457C6.97526 27.0846 6.3737 26.6836 5.80078 26.2539C7.03255 28.1445 8.51497 29.806 10.248 31.2383C11.9811 32.6706 13.8789 33.8164 15.9414 34.6758C17.2591 35.2201 18.5768 35.6211 19.8945 35.8789C21.2122 36.1367 22.487 36.2513 23.7188 36.2227C24.9505 36.194 26.125 36.0365 27.2422 35.75C28.3594 35.4635 29.4049 35.0482 30.3789 34.5039H30.3359C31.2812 34.1315 32.5345 33.8737 34.0957 33.7305C35.6569 33.5872 36.9388 34.4466 37.9414 36.3086C38.1706 36.7383 38.321 36.0293 38.3926 34.1816C38.4642 32.334 37.5833 30.293 35.75 28.0586L35.6641 27.9727C35.6927 27.8867 35.7285 27.8008 35.7715 27.7148C35.8145 27.6289 35.8359 27.543 35.8359 27.457C36.2943 25.7383 36.3802 23.9622 36.0938 22.1289C35.8073 20.3242 35.2129 18.5625 34.3105 16.8438C33.4082 15.125 32.2409 13.5065 30.8086 11.9883C29.3763 10.4987 27.7292 9.20964 25.8672 8.12109Z" fill="white"/>
</svg>
    