<svg width="44" height="44" viewBox="0 0 44 44" fill="none" xmlns="http://www.w3.org/2000/svg">
<path d="M8.72291 33.3869C9.4677 33.9312 10.3271 34.5041 11.301 35.1056C12.275 35.7072 13.2704 36.2944 14.2874 36.8673C15.3043 37.4403 16.2997 37.9702 17.2737 38.4572C18.219 38.9728 19.0641 39.3882 19.8088 39.7033C17.1734 41.3075 14.803 42.3602 12.6975 42.8615C10.592 43.3628 9.02369 43.1694 7.99244 42.2814L7.86353 42.1525L7.69166 41.9806C7.00416 41.1785 6.73919 40.0399 6.89674 38.5646C7.05429 37.0894 7.57708 35.4064 8.4651 33.5158L8.67994 33.4298L8.72291 33.3869ZM35.1917 33.3439L35.5354 33.5158C36.4234 35.4064 36.9462 37.0894 37.1038 38.5646C37.2613 40.0399 36.9963 41.1785 36.3088 41.9806L36.137 42.1525C35.163 43.1265 33.6018 43.37 31.4534 42.883C29.3049 42.396 26.8557 41.3218 24.1057 39.6603C24.8505 39.3452 25.6956 38.9442 26.6409 38.4572C27.5862 37.9702 28.553 37.4403 29.5413 36.8673C30.5296 36.2944 31.5107 35.7215 32.4846 35.1486C33.4299 34.547 34.275 33.9884 35.0198 33.4728L35.1917 33.3439ZM22.0003 16.2423C22.4013 16.6434 22.8095 17.0373 23.2249 17.424C23.6402 17.8107 24.0628 18.2189 24.4924 18.6486C25.6096 19.7658 26.6695 20.8973 27.6721 22.0431C28.6747 23.189 29.6129 24.3276 30.4866 25.4591C31.3603 26.5907 32.1409 27.6864 32.8284 28.7463C33.5445 29.8348 34.1747 30.8947 34.719 31.9259C33.8596 32.5275 32.7711 33.2293 31.4534 34.0314C30.1357 34.8335 28.818 35.5926 27.5003 36.3088C26.1825 37.0249 25.0081 37.6408 23.9768 38.1564C22.9169 38.6434 22.2294 38.8869 21.9143 38.8869C21.6279 38.8869 20.969 38.6434 19.9378 38.1564C18.9065 37.6694 17.7463 37.0679 16.4573 36.3517C15.1682 35.6356 13.8648 34.8908 12.5471 34.1173C11.2008 33.3153 10.0979 32.5991 9.23853 31.9689C9.78281 30.9663 10.413 29.9207 11.1292 28.8322C11.8453 27.7437 12.6331 26.6336 13.4924 25.5021C14.3518 24.3706 15.2828 23.2176 16.2854 22.0431C17.3167 20.8973 18.3909 19.7658 19.5081 18.6486C19.9378 18.2189 20.3603 17.8107 20.7756 17.424C21.191 17.0373 21.5992 16.6434 22.0003 16.2423ZM23.676 4.68375C26.4833 2.85042 28.9182 1.6473 30.9807 1.07438C33.0432 0.501462 34.4182 0.558754 35.1057 1.24625L38.5862 4.64079L38.2854 4.68375C36.9677 4.94157 35.5068 5.43571 33.9026 6.16618C32.2984 6.89664 30.6227 7.84912 28.8753 9.0236L27.2854 10.0548L28.6604 11.3439L29.4768 12.1173L30.2932 12.9338L30.7229 13.3634C32.9573 15.5978 34.9052 17.8465 36.5667 20.1095C38.2281 22.3439 39.5601 24.4207 40.5628 26.34C41.5654 28.2593 42.1956 29.9207 42.4534 31.3244C42.7398 32.7567 42.5823 33.7593 41.9807 34.3322L38.4573 37.8127L38.3713 37.34C38.1135 36.0223 37.6266 34.5757 36.9104 33.0002C36.1943 31.4246 35.2848 29.7918 34.1819 28.1017C33.079 26.4116 31.7971 24.6785 30.3362 22.9025C28.8753 21.0978 27.2711 19.3218 25.5237 17.5744C25.1227 17.1733 24.7073 16.7723 24.2776 16.3713C23.8479 15.9702 23.4182 15.5692 22.9885 15.1681L22.0003 14.2658L21.012 15.1681L20.1526 15.9416C19.8661 16.228 19.5868 16.5073 19.3147 16.7795C19.0426 17.0516 18.7633 17.3166 18.4768 17.5744L18.0471 18.0041C16.2997 19.7801 14.7099 21.5562 13.2776 23.3322C11.8453 25.1369 10.5921 26.8843 9.51783 28.5744C8.44361 30.2645 7.56275 31.8973 6.87525 33.4728C6.18775 35.0197 5.74374 36.452 5.54322 37.7697V37.8127L2.01978 34.3322L1.89088 34.2033C1.37525 33.5731 1.27499 32.5275 1.5901 31.0666C1.9052 29.6056 2.58554 27.9084 3.63111 25.9748C4.67669 24.0412 6.04452 21.9429 7.73463 19.6798C9.45338 17.4168 11.4443 15.1681 13.7073 12.9338C13.9651 12.6473 14.2301 12.3752 14.5022 12.1173C14.7743 11.8595 15.0536 11.6017 15.3401 11.3439L16.7151 10.0548L14.6956 8.72282C13.0055 7.66292 11.4013 6.78922 9.88307 6.10172C8.36484 5.41422 6.97551 4.94157 5.7151 4.68375L5.41432 4.64079L8.89478 1.24625L9.02369 1.16032C9.19557 1.01709 9.41757 0.902504 9.68971 0.816566C9.96184 0.730629 10.2841 0.68766 10.6565 0.68766C11.8596 0.68766 13.3779 1.08154 15.2112 1.8693C17.0445 2.65706 19.0354 3.78141 21.1838 5.24235L22.0003 5.80094L22.8167 5.24235L23.676 4.68375ZM42.8831 6.78922L43.012 6.9611C43.5849 7.50537 43.9 8.25016 43.9573 9.19547C44.0432 10.1694 43.9143 11.2723 43.5706 12.5041C43.2268 13.7358 42.6825 15.0822 41.9378 16.5431C41.193 18.0327 40.262 19.5796 39.1448 21.1838C39.0016 20.9546 38.8583 20.7397 38.7151 20.5392C38.5719 20.3387 38.4286 20.1239 38.2854 19.8947C38.2281 18.3478 38.1422 16.9585 38.0276 15.7267C37.913 14.495 37.7411 13.7072 37.512 13.3634C37.3401 13.0483 36.846 12.59 36.0296 11.9884C35.2131 11.3869 34.232 10.728 33.0862 10.0119L33.1721 9.88297C33.4013 9.48193 33.609 9.09521 33.7952 8.72282C33.9814 8.35042 34.1604 7.97802 34.3323 7.60563C36.2516 6.71761 37.956 6.18766 39.4456 6.01579C40.9352 5.84391 42.081 6.10172 42.8831 6.78922ZM9.66822 7.60563C9.8401 7.97802 10.0191 8.35042 10.2053 8.72282C10.3915 9.09521 10.5992 9.48193 10.8284 9.88297L10.8713 9.92594C9.69687 10.6707 8.69426 11.3511 7.86353 11.967C7.03281 12.5828 6.5315 13.0483 6.35963 13.3634C6.13046 13.7358 5.95859 14.5522 5.844 15.8127C5.72942 17.0731 5.64348 18.5054 5.58619 20.1095C5.47161 20.2814 5.34986 20.4533 5.22096 20.6252C5.09205 20.797 4.97031 20.9832 4.85572 21.1838C3.76718 19.6082 2.85051 18.09 2.10572 16.6291C1.38958 15.1968 0.852467 13.8719 0.494394 12.6545C0.136321 11.437 -0.0283927 10.3556 0.000253183 9.41032C0.0575449 8.43636 0.344003 7.66292 0.859628 7.09L0.988534 6.9611L1.11744 6.83219C1.91952 6.11605 3.06536 5.84391 4.55494 6.01579C6.04452 6.18766 7.74895 6.71761 9.66822 7.60563ZM13.7932 9.88297C13.8792 9.94026 13.9651 9.99756 14.051 10.0548C14.137 10.1121 14.2229 10.1694 14.3088 10.2267C14.051 10.5132 13.7789 10.7925 13.4924 11.0646C13.206 11.3367 12.9195 11.6017 12.6331 11.8595C11.6305 12.8908 10.6637 13.922 9.73268 14.9533C8.80169 15.9845 7.93515 17.0158 7.13307 18.047C7.19036 17.0444 7.25481 16.1851 7.32643 15.4689C7.39804 14.7528 7.49114 14.2944 7.60572 14.0939C7.7776 13.8075 8.44361 13.2775 9.60377 12.5041C10.7639 11.7306 12.0745 10.9142 13.5354 10.0548L13.7932 9.88297ZM30.1643 9.92594C31.6539 10.814 33.0003 11.659 34.2034 12.4611C35.4065 13.2632 36.094 13.8075 36.2659 14.0939C36.3805 14.2944 36.4736 14.7384 36.5452 15.4259C36.6168 16.1134 36.6812 16.9298 36.7385 17.8752C35.9365 16.8726 35.0842 15.87 34.1819 14.8673C33.2796 13.8647 32.3414 12.8621 31.3674 11.8595C31.081 11.6017 30.7945 11.3367 30.5081 11.0646C30.2216 10.7925 29.9495 10.5132 29.6917 10.2267C29.749 10.1981 29.8206 10.1551 29.9065 10.0978C29.9924 10.0405 30.0784 9.98323 30.1643 9.92594Z" fill="white"/>
</svg>
