<svg width="50" height="49" viewBox="0 0 50 49" fill="none" xmlns="http://www.w3.org/2000/svg">
<g clip-path="url(#clip0_49_1280)">
<path d="M40.407 48.07H8.69806C3.89045 48.07 0.00390625 44.1705 0.00390625 39.3468V8.76328C0.00390625 3.93958 3.89045 0.0400391 8.69806 0.0400391H40.407C45.2146 0.0400391 49.1013 3.93958 49.1013 8.76328V39.3468C49.1013 44.1705 45.2146 48.07 40.407 48.07Z" fill="#FF26BE"/>
<path d="M39.6299 46.0173H9.47626C5.38548 46.0173 2.05078 42.6715 2.05078 38.567V9.54407C2.05078 5.4396 5.38548 2.09375 9.47626 2.09375H39.6102C43.7226 2.09375 47.0357 5.4396 47.0357 9.54407V38.5473C47.0554 42.6715 43.7206 46.0173 39.6299 46.0173Z" fill="#2E001F"/>
<path d="M19.4158 22.5149L25.1444 33.5574C25.2465 33.721 25.1857 33.8865 25.0207 33.8865H21.4602C21.2344 33.8865 21.1322 33.8254 21.0301 33.6204C19.7201 30.911 18.3906 28.2017 17.0198 25.2874H16.9786C15.7511 28.0382 14.4 30.9327 13.092 33.6421C12.9899 33.8057 12.8878 33.8687 12.7229 33.8687H9.35082C9.14657 33.8687 9.12497 33.7052 9.22905 33.581L14.834 22.8657L9.41366 12.0281C9.28994 11.8646 9.41366 11.7405 9.53542 11.7405H13.0548C13.2589 11.7405 13.3415 11.7819 13.4219 11.967C14.7103 14.6764 16.0202 17.4686 17.2476 20.1977H17.2889C18.4751 17.4883 19.7849 14.6764 21.0536 11.9867C21.1558 11.8232 21.2166 11.7207 21.4229 11.7207H24.7163C24.8794 11.7207 24.9422 11.8449 24.84 12.0084L19.4158 22.5149ZM26.148 25.8607C26.148 21.0785 29.3197 17.3425 34.3512 17.3425C34.7813 17.3425 35.0052 17.3425 35.4156 17.3838V11.9454C35.4156 11.8213 35.5177 11.7405 35.6198 11.7405H38.8525C39.0155 11.7405 39.0566 11.8016 39.0566 11.904V30.7475C39.0566 31.3013 39.0566 31.9988 39.1588 32.7593C39.1588 32.8835 39.1175 32.9229 38.9958 32.9859C37.2774 33.8076 35.4764 34.1761 33.758 34.1761C29.3177 34.1938 26.1461 31.4451 26.148 25.8607ZM35.4136 20.6075C35.1269 20.4834 34.7184 20.4026 34.2275 20.4026C31.6488 20.4026 29.85 22.3928 29.85 25.6992C29.85 29.4766 31.6921 30.9958 34.0036 30.9958C34.4946 30.9958 35.0267 30.9348 35.4156 30.7692V20.6075H35.4136Z" fill="#FFD9F2"/>
</g>
<defs>
<clipPath id="clip0_49_1280">
<rect width="49.9904" height="48.03" fill="white" transform="translate(0.00390625 0.0400391)"/>
</clipPath>
</defs>
</svg>
